<svg viewBox="0 0 100 100" xmlns="http://www.w3.org/2000/svg" xmlns:xlink="http://www.w3.org/1999/xlink" width="100.000244" height="100.000488" fill="none" customFrame="#000000">
	<defs>
		<linearGradient id="paint_linear_0" x1="50.9365845" x2="38.9412956" y1="46.2039719" y2="55.0624542" gradientUnits="userSpaceOnUse">
			<stop stop-color="rgb(254,187,186)" offset="0" stop-opacity="1" />
			<stop stop-color="rgb(255,146,142)" offset="1" stop-opacity="1" />
		</linearGradient>
		<linearGradient id="paint_linear_1" x1="63.1538544" x2="47.5923576" y1="23.1047726" y2="58.4575195" gradientUnits="userSpaceOnUse">
			<stop stop-color="rgb(255,146,142)" offset="0" stop-opacity="1" />
			<stop stop-color="rgb(254,112,98)" offset="1" stop-opacity="1" />
		</linearGradient>
		<linearGradient id="paint_linear_2" x1="73.7503815" x2="58.1888657" y1="27.7945862" y2="63.1473465" gradientUnits="userSpaceOnUse">
			<stop stop-color="rgb(255,146,142)" offset="0" stop-opacity="1" />
			<stop stop-color="rgb(254,112,98)" offset="1" stop-opacity="1" />
		</linearGradient>
		<linearGradient id="paint_linear_3" x1="60.6984253" x2="59.0168953" y1="41.017128" y2="35.9587326" gradientUnits="userSpaceOnUse">
			<stop stop-color="rgb(254,187,186)" offset="0" stop-opacity="1" />
			<stop stop-color="rgb(255,146,142)" offset="1" stop-opacity="1" />
		</linearGradient>
		<linearGradient id="paint_linear_4" x1="56.7705078" x2="62.8142776" y1="34.8100891" y2="37.4449921" gradientUnits="userSpaceOnUse">
			<stop stop-color="rgb(254,187,186)" offset="0" stop-opacity="1" />
			<stop stop-color="rgb(255,146,142)" offset="1" stop-opacity="1" />
		</linearGradient>
		<linearGradient id="paint_linear_5" x1="61.1409111" x2="56.1925507" y1="38.4409676" y2="33.1699753" gradientUnits="userSpaceOnUse">
			<stop stop-color="rgb(9,0,93)" offset="0" stop-opacity="1" />
			<stop stop-color="rgb(26,15,145)" offset="1" stop-opacity="1" />
		</linearGradient>
		<linearGradient id="paint_linear_6" x1="56.3942108" x2="62.4379959" y1="35.6786118" y2="38.3135185" gradientUnits="userSpaceOnUse">
			<stop stop-color="rgb(254,187,186)" offset="0" stop-opacity="1" />
			<stop stop-color="rgb(255,146,142)" offset="1" stop-opacity="1" />
		</linearGradient>
		<linearGradient id="paint_linear_7" x1="68.2479782" x2="60.7368813" y1="99.6357574" y2="99.6357574" gradientUnits="userSpaceOnUse">
			<stop stop-color="rgb(9,0,93)" offset="0" stop-opacity="1" />
			<stop stop-color="rgb(26,15,145)" offset="1" stop-opacity="1" />
		</linearGradient>
		<linearGradient id="paint_linear_8" x1="86.377243" x2="59.180275" y1="92.5891113" y2="100.362068" gradientUnits="userSpaceOnUse">
			<stop stop-color="rgb(79,82,255)" offset="0" stop-opacity="1" />
			<stop stop-color="rgb(64,66,226)" offset="1" stop-opacity="1" />
		</linearGradient>
		<linearGradient id="paint_linear_9" x1="67.5544739" x2="65.4387283" y1="96.0987701" y2="96.0987701" gradientUnits="userSpaceOnUse">
			<stop stop-color="rgb(254,187,186)" offset="0" stop-opacity="1" />
			<stop stop-color="rgb(255,146,142)" offset="1" stop-opacity="1" />
		</linearGradient>
		<linearGradient id="paint_linear_10" x1="83.2218475" x2="80.3434906" y1="99.4730225" y2="99.4730225" gradientUnits="userSpaceOnUse">
			<stop stop-color="rgb(9,0,93)" offset="0" stop-opacity="1" />
			<stop stop-color="rgb(26,15,145)" offset="1" stop-opacity="1" />
		</linearGradient>
		<linearGradient id="paint_linear_11" x1="71.2155609" x2="88.1643829" y1="91.0093613" y2="102.075951" gradientUnits="userSpaceOnUse">
			<stop stop-color="rgb(79,82,255)" offset="0" stop-opacity="1" />
			<stop stop-color="rgb(64,66,226)" offset="1" stop-opacity="1" />
		</linearGradient>
		<linearGradient id="paint_linear_12" x1="81.0048218" x2="78.4763184" y1="94.3304901" y2="94.3304901" gradientUnits="userSpaceOnUse">
			<stop stop-color="rgb(254,187,186)" offset="0" stop-opacity="1" />
			<stop stop-color="rgb(255,146,142)" offset="1" stop-opacity="1" />
		</linearGradient>
		<linearGradient id="paint_linear_13" x1="69.6715317" x2="72.3499374" y1="58.319931" y2="94.845459" gradientUnits="userSpaceOnUse">
			<stop stop-color="rgb(9,0,93)" offset="0" stop-opacity="1" />
			<stop stop-color="rgb(26,15,145)" offset="1" stop-opacity="1" />
		</linearGradient>
		<linearGradient id="paint_linear_14" x1="69.1827621" x2="69.1827621" y1="79.0779953" y2="71.3369598" gradientUnits="userSpaceOnUse">
			<stop stop-color="rgb(79,82,255)" offset="0" stop-opacity="1" />
			<stop stop-color="rgb(64,66,226)" offset="1" stop-opacity="1" />
		</linearGradient>
		<linearGradient id="paint_linear_15" x1="168.260117" x2="165.397491" y1="-149.009003" y2="-143.110886" gradientUnits="userSpaceOnUse">
			<stop stop-color="rgb(79,82,255)" offset="0" stop-opacity="1" />
			<stop stop-color="rgb(64,66,226)" offset="1" stop-opacity="1" />
		</linearGradient>
		<linearGradient id="paint_linear_16" x1="167.664108" x2="164.801392" y1="-149.306107" y2="-143.407867" gradientUnits="userSpaceOnUse">
			<stop stop-color="rgb(79,82,255)" offset="0" stop-opacity="1" />
			<stop stop-color="rgb(64,66,226)" offset="1" stop-opacity="1" />
		</linearGradient>
		<linearGradient id="paint_linear_17" x1="173.566864" x2="170.704224" y1="-146.419647" y2="-140.521515" gradientUnits="userSpaceOnUse">
			<stop stop-color="rgb(79,82,255)" offset="0" stop-opacity="1" />
			<stop stop-color="rgb(64,66,226)" offset="1" stop-opacity="1" />
		</linearGradient>
		<linearGradient id="paint_linear_18" x1="172.933228" x2="170.070526" y1="-146.734726" y2="-140.836472" gradientUnits="userSpaceOnUse">
			<stop stop-color="rgb(79,82,255)" offset="0" stop-opacity="1" />
			<stop stop-color="rgb(64,66,226)" offset="1" stop-opacity="1" />
		</linearGradient>
		<linearGradient id="paint_linear_19" x1="169.687515" x2="166.82489" y1="-148.31311" y2="-142.414993" gradientUnits="userSpaceOnUse">
			<stop stop-color="rgb(79,82,255)" offset="0" stop-opacity="1" />
			<stop stop-color="rgb(64,66,226)" offset="1" stop-opacity="1" />
		</linearGradient>
		<linearGradient id="paint_linear_20" x1="68.6689377" x2="69.1680908" y1="61.2607002" y2="85.5437622" gradientUnits="userSpaceOnUse">
			<stop stop-color="rgb(79,82,255)" offset="0" stop-opacity="1" />
			<stop stop-color="rgb(64,66,226)" offset="1" stop-opacity="1" />
		</linearGradient>
		<linearGradient id="paint_linear_21" x1="87.4511108" x2="74.8073883" y1="47.7591591" y2="63.6069641" gradientUnits="userSpaceOnUse">
			<stop stop-color="rgb(9,0,93)" offset="0" stop-opacity="1" />
			<stop stop-color="rgb(26,15,145)" offset="1" stop-opacity="1" />
		</linearGradient>
		<linearGradient id="paint_linear_22" x1="82.3493118" x2="71.0429001" y1="49.7707405" y2="67.7518768" gradientUnits="userSpaceOnUse">
			<stop stop-color="rgb(79,82,255)" offset="0" stop-opacity="1" />
			<stop stop-color="rgb(64,66,226)" offset="1" stop-opacity="1" />
		</linearGradient>
		<linearGradient id="paint_linear_23" x1="77.2666931" x2="67.9811707" y1="32.1135559" y2="63.1498718" gradientUnits="userSpaceOnUse">
			<stop stop-color="rgb(254,187,186)" offset="0" stop-opacity="1" />
			<stop stop-color="rgb(255,146,142)" offset="1" stop-opacity="1" />
		</linearGradient>
		<linearGradient id="paint_linear_24" x1="78.0674744" x2="62.5059738" y1="29.7054749" y2="65.0582581" gradientUnits="userSpaceOnUse">
			<stop stop-color="rgb(255,146,142)" offset="0" stop-opacity="1" />
			<stop stop-color="rgb(254,112,98)" offset="1" stop-opacity="1" />
		</linearGradient>
		<linearGradient id="paint_linear_25" x1="93.7330704" x2="66.2574615" y1="18.0211487" y2="50.8136826" gradientUnits="userSpaceOnUse">
			<stop stop-color="rgb(255,146,142)" offset="0" stop-opacity="1" />
			<stop stop-color="rgb(254,112,98)" offset="1" stop-opacity="1" />
		</linearGradient>
		<linearGradient id="paint_linear_26" x1="17.3723049" x2="22.2996616" y1="97.6544113" y2="97.6544113" gradientUnits="userSpaceOnUse">
			<stop stop-color="rgb(9,0,93)" offset="0" stop-opacity="1" />
			<stop stop-color="rgb(26,15,145)" offset="1" stop-opacity="1" />
		</linearGradient>
		<linearGradient id="paint_linear_27" x1="29.7078323" x2="11.78195" y1="91.8260422" y2="105.939972" gradientUnits="userSpaceOnUse">
			<stop stop-color="rgb(79,82,255)" offset="0" stop-opacity="1" />
			<stop stop-color="rgb(64,66,226)" offset="1" stop-opacity="1" />
		</linearGradient>
		<linearGradient id="paint_linear_28" x1="18.7427788" x2="17.8015709" y1="92.0299606" y2="100.266609" gradientUnits="userSpaceOnUse">
			<stop stop-color="rgb(254,187,186)" offset="0" stop-opacity="1" />
			<stop stop-color="rgb(255,146,142)" offset="1" stop-opacity="1" />
		</linearGradient>
		<linearGradient id="paint_linear_29" x1="32.8922653" x2="14.966363" y1="95.8863602" y2="110.000107" gradientUnits="userSpaceOnUse">
			<stop stop-color="rgb(79,82,255)" offset="0" stop-opacity="1" />
			<stop stop-color="rgb(64,66,226)" offset="1" stop-opacity="1" />
		</linearGradient>
		<linearGradient id="paint_linear_30" x1="24.8757534" x2="31.9686279" y1="97.7798615" y2="97.7798615" gradientUnits="userSpaceOnUse">
			<stop stop-color="rgb(9,0,93)" offset="0" stop-opacity="1" />
			<stop stop-color="rgb(26,15,145)" offset="1" stop-opacity="1" />
		</linearGradient>
		<linearGradient id="paint_linear_31" x1="26.2813091" x2="25.8586521" y1="92.8994751" y2="101.179161" gradientUnits="userSpaceOnUse">
			<stop stop-color="rgb(254,187,186)" offset="0" stop-opacity="1" />
			<stop stop-color="rgb(255,146,142)" offset="1" stop-opacity="1" />
		</linearGradient>
		<linearGradient id="paint_linear_32" x1="14.2215672" x2="26.0069981" y1="103.980263" y2="63.1556816" gradientUnits="userSpaceOnUse">
			<stop stop-color="rgb(9,0,93)" offset="0" stop-opacity="1" />
			<stop stop-color="rgb(26,15,145)" offset="1" stop-opacity="1" />
		</linearGradient>
		<linearGradient id="paint_linear_33" x1="72.8221817" x2="51.0309143" y1="-27.7558975" y2="7.1803093" gradientUnits="userSpaceOnUse">
			<stop stop-color="rgb(255,146,142)" offset="0" stop-opacity="1" />
			<stop stop-color="rgb(254,112,98)" offset="1" stop-opacity="1" />
		</linearGradient>
		<linearGradient id="paint_linear_34" x1="22.4975471" x2="24.6835213" y1="44.0228615" y2="38.0371742" gradientUnits="userSpaceOnUse">
			<stop stop-color="rgb(254,187,186)" offset="0" stop-opacity="1" />
			<stop stop-color="rgb(255,146,142)" offset="1" stop-opacity="1" />
		</linearGradient>
		<linearGradient id="paint_linear_35" x1="26.9790001" x2="23.9801788" y1="39.6940689" y2="32.2984314" gradientUnits="userSpaceOnUse">
			<stop stop-color="rgb(254,187,186)" offset="0" stop-opacity="1" />
			<stop stop-color="rgb(255,146,142)" offset="1" stop-opacity="1" />
		</linearGradient>
		<linearGradient id="paint_linear_36" x1="36.9012642" x2="28.1744499" y1="-5.7654953" y2="22.1271229" gradientUnits="userSpaceOnUse">
			<stop stop-color="rgb(9,0,93)" offset="0" stop-opacity="1" />
			<stop stop-color="rgb(26,15,145)" offset="1" stop-opacity="1" />
		</linearGradient>
		<linearGradient id="paint_linear_37" x1="24.9230003" x2="21.9241695" y1="40.532299" y2="33.1366692" gradientUnits="userSpaceOnUse">
			<stop stop-color="rgb(254,187,186)" offset="0" stop-opacity="1" />
			<stop stop-color="rgb(255,146,142)" offset="1" stop-opacity="1" />
		</linearGradient>
		<linearGradient id="paint_linear_38" x1="22.1144428" x2="31.3540688" y1="53.5339737" y2="42.7249794" gradientUnits="userSpaceOnUse">
			<stop stop-color="rgb(255,146,142)" offset="0" stop-opacity="1" />
			<stop stop-color="rgb(254,112,98)" offset="1" stop-opacity="1" />
		</linearGradient>
		<linearGradient id="paint_linear_39" x1="42.7015381" x2="28.9503841" y1="42.9746895" y2="49.8338089" gradientUnits="userSpaceOnUse">
			<stop stop-color="rgb(254,187,186)" offset="0" stop-opacity="1" />
			<stop stop-color="rgb(255,146,142)" offset="1" stop-opacity="1" />
		</linearGradient>
		<linearGradient id="paint_linear_40" x1="42.5004921" x2="37.7968674" y1="41.2543716" y2="46.1804504" gradientUnits="userSpaceOnUse">
			<stop stop-color="rgb(254,187,186)" offset="0" stop-opacity="1" />
			<stop stop-color="rgb(255,146,142)" offset="1" stop-opacity="1" />
		</linearGradient>
		<linearGradient id="paint_linear_41" x1="42.7668686" x2="29.0157547" y1="42.8931961" y2="49.7522774" gradientUnits="userSpaceOnUse">
			<stop stop-color="rgb(254,187,186)" offset="0" stop-opacity="1" />
			<stop stop-color="rgb(255,146,142)" offset="1" stop-opacity="1" />
		</linearGradient>
		<linearGradient id="paint_linear_42" x1="39.9259148" x2="20.9603806" y1="56.0528259" y2="46.3003464" gradientUnits="userSpaceOnUse">
			<stop stop-color="rgb(254,187,186)" offset="0" stop-opacity="1" />
			<stop stop-color="rgb(255,146,142)" offset="1" stop-opacity="1" />
		</linearGradient>
		<linearGradient id="paint_linear_43" x1="72.0801086" x2="-16.6690292" y1="-11.4887085" y2="93.8382263" gradientUnits="userSpaceOnUse">
			<stop stop-color="rgb(225,71,61)" offset="0" stop-opacity="1" />
			<stop stop-color="rgb(233,96,90)" offset="1" stop-opacity="1" />
		</linearGradient>
		<linearGradient id="paint_linear_44" x1="71.4147339" x2="-17.3343811" y1="-12.052021" y2="93.2749176" gradientUnits="userSpaceOnUse">
			<stop stop-color="rgb(225,71,61)" offset="0" stop-opacity="1" />
			<stop stop-color="rgb(233,96,90)" offset="1" stop-opacity="1" />
		</linearGradient>
	</defs>
	<g id="Illustration">
		<g id="Group">
			<path id="Vector" d="M92.4686 65.8926C82.6912 88.8084 56.8821 98.6513 36.6603 96.9731C31.1389 96.5149 20.0298 95.5929 11.3556 87.3677C-5.30238 71.5717 -2.73688 38.5536 13.2096 19.1144C15.2632 16.6111 29.4778 -0.161232 51.6286 0.0632682C67.8461 0.227661 79.2291 9.41377 80.6132 10.5582C82.3617 12.0039 86.2183 15.4393 89.6939 20.8894C97.8606 33.6953 98.5784 51.5724 92.4686 65.8926Z" fill="rgb(237,247,236)" fill-rule="evenodd" />
			<g id="Group">
				<path id="Vector" d="M99.9508 0.757182C100.177 0.305004 99.5805 -0.173889 99.0896 0.0624324C94.1042 2.46175 81.6482 10.2374 79.9262 28.6142C77.7658 51.6706 70.4655 58.5282 62.606 61.8975C62.606 61.8975 72.3346 61.7541 80.0686 54.8735C99.0574 37.9802 95.9324 8.797 99.9508 0.757182Z" fill="rgb(171,218,169)" fill-rule="nonzero" />
				<path id="Vector" d="M95.1157 6.96479C94.003 9.32322 92.9454 11.7028 91.991 14.1189C91.0219 16.5293 90.1385 18.9693 89.3448 21.4352C88.5622 23.9042 87.8334 26.3888 87.2279 28.904C86.6095 31.416 86.1164 33.9557 85.6316 36.5077C85.1307 39.055 84.6427 41.6245 83.8503 44.1404C83.0622 46.6518 81.9137 49.1007 80.2756 51.2622C79.8665 51.8007 79.4442 52.3341 78.9887 52.8382C78.5441 53.3505 78.0723 53.8441 77.59 54.3295C76.6194 55.2958 75.5698 56.2028 74.4432 57.0325C72.1844 58.6869 69.6175 60.0199 66.9015 61.0182C66.6156 61.1233 66.2715 60.9985 66.1328 60.7395C65.9966 60.4851 66.1092 60.1959 66.384 60.0861L66.3859 60.0853C67.0374 59.8255 67.6843 59.5593 68.3135 59.2678C68.6312 59.1266 68.9401 58.9729 69.2525 58.8245C69.5574 58.6656 69.8702 58.5173 70.1686 58.3499C71.3758 57.6989 72.524 56.9708 73.5994 56.168C75.7576 54.5739 77.6342 52.6713 79.2035 50.609C79.9745 49.569 80.653 48.4756 81.23 47.3343C81.8059 46.1925 82.2799 45.0041 82.6752 43.7864C83.4663 41.3497 83.9735 38.8113 84.4955 36.2686C85.0214 33.7261 85.57 31.1756 86.2388 28.6559C86.5693 27.3952 86.9259 26.1414 87.3083 24.8953C87.4953 24.2711 87.6964 23.651 87.896 23.0306C88.1027 22.4123 88.3132 21.7953 88.5295 21.1803C89.4002 18.7218 90.3577 16.2928 91.4033 13.8991C92.4623 11.5105 93.595 9.15175 94.8321 6.84147C94.8676 6.77543 94.9591 6.75071 95.0366 6.78629C95.1119 6.82082 95.1462 6.89982 95.1157 6.96479Z" fill="rgb(255,255,255)" fill-rule="nonzero" />
			</g>
			<g id="Group">
				<g id="Group">
					<path id="Vector" d="M76.3209 51.5648C76.7037 52.2322 77.6419 52.2907 78.1122 51.682C80.707 48.3238 87.1872 38.1636 83.8643 23.8815C81.0583 11.8209 80.6798 5.01371 80.7215 1.91157C80.7303 1.2556 79.8988 0.969604 79.5032 1.4921C75.1385 7.25689 62.4492 27.3807 76.3209 51.5648Z" fill="rgb(171,218,169)" fill-rule="nonzero" />
					<path id="Vector" d="M77.346 51.3898C77.3634 51.3974 77.3818 51.4035 77.4011 51.4077C77.5627 51.4437 77.7229 51.3415 77.7588 51.1795C77.7994 50.9957 81.7912 32.6132 78.6451 15.667C78.6147 15.5039 78.4583 15.3962 78.2954 15.4265C78.1326 15.4569 78.0253 15.6138 78.0555 15.7771C81.1788 32.5999 77.2139 50.8667 77.1735 51.0492C77.1418 51.1919 77.2171 51.3334 77.346 51.3898Z" fill="rgb(255,255,255)" fill-rule="nonzero" />
				</g>
			</g>
			<g id="Group">
				<path id="Vector" d="M19.4199 25.1506C19.416 25.1506 19.412 25.1505 19.4081 25.1503C19.2404 25.144 19.1095 25.0024 19.1159 24.8342C19.1175 24.7938 19.281 20.7412 20.299 16.0386C21.6729 9.6916 23.8638 5.24117 26.8105 2.81085C28.9192 1.07178 31.4017 0.4131 34.1887 0.852922C37.3996 1.35978 40.1014 2.94996 42.2193 5.57938C43.9009 7.66713 45.2166 10.4101 46.1301 13.7322C47.6782 19.3633 47.5329 24.8008 47.5312 24.8551C47.5262 25.0232 47.3908 25.1553 47.2182 25.1503C47.0504 25.1452 46.9185 25.0047 46.9236 24.8365C46.9253 24.783 47.0673 19.4252 45.5405 13.8815C44.6488 10.6435 43.3709 7.97735 41.7421 5.9571C39.7226 3.45199 37.1494 1.93728 34.0941 1.45503C31.4857 1.04314 29.1654 1.65781 27.1965 3.2816C23.6609 6.19753 21.8171 11.8987 20.893 16.1678C19.8862 20.8186 19.7248 24.8175 19.7233 24.8574C19.7172 25.0217 19.5824 25.1506 19.4199 25.1506Z" fill="rgb(52,124,48)" fill-rule="nonzero" />
				<path id="Vector" d="M73.0597 92.7894L62.5222 19.9242L21.3173 19.3975L11.521 96.7415L69.632 96.8392C71.7469 96.8392 73.3683 94.9235 73.0597 92.7894Z" fill="rgb(52,124,48)" fill-rule="evenodd" />
				<path id="Vector" d="M13.7717 20.0519L21.3169 19.397L11.5206 96.741L2.54526 96.8387C0.997805 96.8387 0.652069 96.405 0.967529 94.8598L13.7717 20.0519Z" fill="rgb(73,174,68)" fill-rule="nonzero" />
				<path id="Vector" d="M13.7717 20.0519L21.3169 19.397L11.5206 96.741L2.54526 96.8387C0.997805 96.8387 0.652069 96.405 0.967529 94.8598L13.7717 20.0519Z" fill="rgb(0,0,0)" fill-opacity="0.200000003" fill-rule="nonzero" />
				<path id="Vector" d="M27.9262 24.9836C27.9223 24.9836 27.9184 24.9835 27.9144 24.9833C27.7467 24.9769 27.6159 24.8354 27.6223 24.6672C27.6238 24.6268 27.7873 20.5742 28.8054 15.8715C30.1793 9.52462 32.3701 5.07415 35.3169 2.6439C37.4256 0.904727 39.9089 0.246155 42.6951 0.685905C45.9061 1.19276 48.6079 2.78301 50.7258 5.41241C52.4074 7.50015 53.7231 10.2432 54.6366 13.5653C56.1847 19.1963 56.0394 24.6338 56.0377 24.6881C56.0327 24.8562 55.8988 24.9881 55.7247 24.9834C55.5569 24.9783 55.425 24.8378 55.4301 24.6696C55.4318 24.6161 55.5738 19.2583 54.047 13.7145C53.1553 10.4765 51.8774 7.81048 50.2486 5.79019C48.2291 3.28512 45.6558 1.77033 42.6006 1.28805C39.9929 0.87637 37.6723 1.49083 35.7035 3.11419C32.1695 6.02841 30.3258 11.7252 29.4014 15.991C28.3935 20.6429 28.2312 24.6504 28.2296 24.6904C28.2234 24.8546 28.0886 24.9836 27.9262 24.9836Z" fill="rgb(73,174,68)" fill-rule="nonzero" />
				<path id="Vector" d="M27.9262 24.9836C27.9223 24.9836 27.9184 24.9835 27.9144 24.9833C27.7467 24.9769 27.6159 24.8354 27.6223 24.6672C27.6238 24.6268 27.7873 20.5742 28.8054 15.8715C30.1793 9.52462 32.3701 5.07415 35.3169 2.6439C37.4256 0.904727 39.9089 0.246155 42.6951 0.685905C45.9061 1.19276 48.6079 2.78301 50.7258 5.41241C52.4074 7.50015 53.7231 10.2432 54.6366 13.5653C56.1847 19.1963 56.0394 24.6338 56.0377 24.6881C56.0327 24.8562 55.8988 24.9881 55.7247 24.9834C55.5569 24.9783 55.425 24.8378 55.4301 24.6696C55.4318 24.6161 55.5738 19.2583 54.047 13.7145C53.1553 10.4765 51.8774 7.81048 50.2486 5.79019C48.2291 3.28512 45.6558 1.77033 42.6006 1.28805C39.9929 0.87637 37.6723 1.49083 35.7035 3.11419C32.1695 6.02841 30.3258 11.7252 29.4014 15.991C28.3935 20.6429 28.2312 24.6504 28.2296 24.6904C28.2234 24.8546 28.0886 24.9836 27.9262 24.9836Z" fill="rgb(0,0,0)" fill-opacity="0.200000003" fill-rule="nonzero" />
			</g>
			<g id="Group">
				<path id="Vector" d="M31.2173 27.3306C31.2173 24.344 33.6318 21.9229 36.6103 21.9229L82.4728 21.9229C85.003 21.9229 87.0894 23.9111 87.218 26.4449L90.6033 93.1186C90.704 95.1014 89.1474 96.7739 87.1678 96.81L34.6035 97.768C32.7434 97.8018 31.2173 96.2991 31.2173 94.4336L31.2173 27.3306Z" fill="rgb(73,174,68)" fill-rule="nonzero" />
				<path id="Vector" d="M31.2173 27.3306C31.2173 24.344 33.6318 21.9229 36.6103 21.9229L82.4728 21.9229C85.003 21.9229 87.0894 23.9111 87.218 26.4449L90.6033 93.1186C90.704 95.1014 89.1474 96.7739 87.1678 96.81L34.6035 97.768C32.7434 97.8018 31.2173 96.2991 31.2173 94.4336L31.2173 27.3306Z" fill="rgb(0,0,0)" fill-opacity="0.200000003" fill-rule="nonzero" />
				<g id="Group">
					<path id="Vector" d="M34.9741 22.9489C34.9685 21.9933 35.8066 21.2538 36.7509 21.3822C43.0138 22.2338 64.5505 24.8678 82.3567 23.4972C83.1687 23.4347 83.8734 24.0516 83.9166 24.8671L87.4663 91.838C87.515 92.7562 86.8157 93.5415 85.9002 93.5958C78.4113 94.0402 47.5694 95.7581 36.5685 94.6027C35.899 94.5324 35.3908 93.9672 35.3868 93.2921L34.9741 22.9489Z" fill="rgb(133,201,130)" fill-rule="nonzero" />
					<path id="Vector" d="M35.7119 24.6271C35.7065 23.7076 36.513 22.9958 37.4218 23.1195C43.4489 23.939 64.1746 26.4738 81.3103 25.1548C82.0917 25.0946 82.7699 25.6883 82.8115 26.4731L86.2275 90.9221C86.2743 91.8058 85.6014 92.5615 84.7204 92.6138C77.5134 93.0415 47.8329 94.6947 37.2463 93.5828C36.602 93.5151 36.1129 92.9712 36.1091 92.3216L35.7119 24.6271Z" fill="rgb(171,218,169)" fill-rule="nonzero" />
					<g id="Group" opacity="0.600000024">
						<path id="Vector" d="M79.9891 30.9162C80.079 30.9162 80.1504 30.8425 80.1478 30.7524L80.1303 30.153C80.1277 30.0628 80.052 29.9878 79.9621 29.9862L62.6735 29.6773C62.5837 29.6757 62.5346 29.7439 62.5644 29.8289L62.892 30.7616C62.9219 30.8466 63.0198 30.9162 63.1097 30.9162L79.9891 30.9162Z" fill="rgb(255,255,255)" fill-rule="nonzero" />
					</g>
					<g id="Group" opacity="0.600000024">
						<path id="Vector" d="M62.6735 33.5449C62.5837 33.5433 62.5346 33.6116 62.5644 33.6966L62.892 34.6293C62.9219 34.7143 63.0198 34.7838 63.1097 34.7838L79.9891 34.7838C80.079 34.7838 80.1504 34.7101 80.1478 34.62L80.1303 34.0206C80.1277 33.9305 80.052 33.8554 79.9621 33.8538L62.6735 33.5449Z" fill="rgb(255,255,255)" fill-rule="nonzero" />
					</g>
					<g id="Group" opacity="0.600000024">
						<path id="Vector" d="M62.5563 41.2417C62.4665 41.2401 62.4174 41.3084 62.4472 41.3934L62.7748 42.326C62.8047 42.4111 62.9027 42.4806 62.9925 42.4806L79.8719 42.4806C79.9618 42.4806 80.0332 42.4069 80.0306 42.3168L80.0131 41.7174C80.0105 41.6273 79.9348 41.5522 79.8449 41.5506L62.5563 41.2417Z" fill="rgb(255,255,255)" fill-rule="nonzero" />
					</g>
					<g id="Group" opacity="0.600000024">
						<path id="Vector" d="M62.6735 37.5674C62.5837 37.5658 62.5346 37.6341 62.5644 37.7191L62.892 38.6517C62.9219 38.7367 63.0198 38.8063 63.1097 38.8063L79.9891 38.8063C80.079 38.8063 80.1504 38.7326 80.1478 38.6425L80.1303 38.0431C80.1277 37.9529 80.052 37.8779 79.9621 37.8763L62.6735 37.5674Z" fill="rgb(255,255,255)" fill-rule="nonzero" />
					</g>
					<g id="Group" opacity="0.600000024">
						<path id="Vector" d="M81.01 51.5262C81.0999 51.5262 81.1685 51.4527 81.1623 51.3627L81.1212 50.7627C81.1151 50.6728 81.0365 50.5986 80.9466 50.5979L39.8917 50.2857C39.8018 50.285 39.7752 50.3412 39.8325 50.4107L40.6487 51.4C40.706 51.4694 40.8265 51.5263 40.9164 51.5263L81.01 51.5262Z" fill="rgb(255,255,255)" fill-rule="nonzero" />
					</g>
					<g id="Group" opacity="0.600000024">
						<path id="Vector" d="M39.8917 54.2705C39.8018 54.2698 39.7752 54.3261 39.8325 54.3956L40.6487 55.3848C40.706 55.4543 40.8265 55.5111 40.9164 55.5111L81.01 55.5111C81.0999 55.5111 81.1685 55.4375 81.1623 55.3476L81.1212 54.7476C81.1151 54.6577 81.0365 54.5835 80.9466 54.5828L39.8917 54.2705Z" fill="rgb(255,255,255)" fill-rule="nonzero" />
					</g>
					<g id="Group">
						<g id="Group" opacity="0.600000024">
							<path id="Vector" d="M40.2507 70.4233C40.3454 70.7833 40.6715 71.0331 41.0428 71.0299L71.303 70.7712C71.6453 70.7683 71.9192 70.4852 71.9117 70.142C71.9044 69.8084 71.6334 69.5413 71.3006 69.5398L41.0396 69.4014C40.5054 69.3989 40.1144 69.9054 40.2507 70.4233Z" fill="rgb(255,255,255)" fill-rule="nonzero" />
						</g>
						<g id="Group" opacity="0.600000024">
							<path id="Vector" d="M40.1699 64.3857C40.2645 64.7457 40.5907 64.9955 40.962 64.9923L71.2222 64.7336C71.5645 64.7307 71.8384 64.4476 71.8309 64.1045C71.8236 63.7708 71.5526 63.5037 71.2198 63.5022L40.9588 63.3638C40.4246 63.3614 40.0336 63.8678 40.1699 64.3857Z" fill="rgb(255,255,255)" fill-rule="nonzero" />
						</g>
						<g id="Group" opacity="0.600000024">
							<path id="Vector" d="M40.2507 77.4521C40.3454 77.8121 40.6715 78.0619 41.0428 78.0587L71.303 77.8C71.6453 77.7971 71.9192 77.514 71.9117 77.1708C71.9044 76.8372 71.6334 76.5701 71.3006 76.5686L41.0396 76.4302C40.5054 76.4277 40.1144 76.9342 40.2507 77.4521Z" fill="rgb(255,255,255)" fill-rule="nonzero" />
						</g>
						<g id="Group" opacity="0.600000024">
							<path id="Vector" d="M40.6018 84.4809C40.6964 84.8409 41.0226 85.0907 41.3939 85.0875L71.6541 84.8288C71.9964 84.8259 72.2702 84.5428 72.2628 84.1996C72.2555 83.866 71.9845 83.5989 71.6517 83.5974L41.3906 83.459C40.8565 83.4565 40.4655 83.963 40.6018 84.4809Z" fill="rgb(255,255,255)" fill-rule="nonzero" />
						</g>
						<g id="Group">
							<g id="Group">
								<path id="Vector" d="M79.9536 65.6881C79.9506 65.6881 79.9476 65.6882 79.9446 65.6883L76.6747 65.7571C76.2075 65.7669 75.8121 65.4565 75.755 65.0352L75.3838 62.2937C75.362 62.1327 75.4071 61.9717 75.5108 61.8399C75.6269 61.6926 75.8065 61.5967 76.0035 61.5771C76.2783 61.5498 76.6652 61.5047 77.0747 61.4571C77.937 61.3567 79.0103 61.232 79.6154 61.2058C80.0546 61.1901 80.4352 61.4393 80.5504 61.8197C80.74 62.4458 80.7615 63.6414 80.7679 64.9155C80.77 65.3294 80.4055 65.6742 79.9536 65.6881ZM76.0283 61.8278C75.8988 61.8406 75.782 61.902 75.7079 61.9961C75.6468 62.0736 75.6201 62.1673 75.6326 62.2598L76.0038 65.0012C76.0437 65.2957 76.3299 65.5125 76.6694 65.5054L79.9393 65.4366C79.9415 65.4365 79.9437 65.4365 79.9459 65.4364C80.2627 65.4267 80.5182 65.1948 80.5168 64.9168C80.5104 63.662 80.4898 62.4866 80.3101 61.8928C80.2295 61.6267 79.9454 61.4486 79.6263 61.4574C79.0301 61.4832 77.9619 61.6075 77.1037 61.7073C76.693 61.7551 76.3051 61.8002 76.0283 61.8278Z" fill="rgb(255,255,255)" fill-rule="nonzero" />
								<path id="Vector" d="M76.3885 62.1008C77.0738 62.0327 78.5618 61.8349 79.2694 61.8044C79.5692 61.7914 79.8379 61.9651 79.9162 62.2237C80.0683 62.7261 80.081 63.7363 80.0857 64.669C80.0871 64.9482 79.8383 65.1789 79.526 65.1855L76.9129 65.2404C76.5916 65.2472 76.3182 65.0357 76.2795 64.7506L75.9829 62.5598C75.9522 62.3332 76.1345 62.1261 76.3885 62.1008Z" opacity="0.600000024" fill="rgb(255,255,255)" fill-rule="nonzero" />
							</g>
							<g id="Group">
								<path id="Vector" d="M80.6682 72.4584C80.6652 72.4585 80.6622 72.4586 80.6592 72.4587L77.3893 72.5275C76.9221 72.5373 76.5267 72.2268 76.4696 71.8056L76.0984 69.0641C76.0766 68.9031 76.1217 68.7421 76.2254 68.6103C76.3415 68.463 76.5211 68.3672 76.7181 68.3475C76.9929 68.3202 77.3798 68.2752 77.7893 68.2275C78.6516 68.1272 79.7249 68.0023 80.33 67.9761C80.3345 67.976 80.3389 67.9757 80.3432 67.9756C80.7731 67.9624 81.151 68.2136 81.265 68.5901C81.4546 69.2162 81.4761 70.4118 81.4825 71.6859C81.4846 72.0998 81.1201 72.4446 80.6682 72.4584ZM76.7429 68.5981C76.6134 68.6109 76.4966 68.6724 76.4226 68.7664C76.3614 68.8439 76.3347 68.9376 76.3472 69.0301L76.7185 71.7716C76.7584 72.0661 77.0445 72.2828 77.3841 72.2757L80.654 72.2069C80.6561 72.2069 80.6584 72.2068 80.6606 72.2067C80.9773 72.197 81.2328 71.9652 81.2314 71.6872C81.2251 70.4324 81.2045 69.257 81.0247 68.6632C80.9442 68.3972 80.6559 68.213 80.3409 68.2277C79.7448 68.2535 78.6766 68.3778 77.8183 68.4777C77.4076 68.5254 77.0198 68.5706 76.7429 68.5981Z" fill="rgb(255,255,255)" fill-rule="nonzero" />
								<path id="Vector" d="M77.1032 68.8713C77.7885 68.8032 79.2764 68.6055 79.984 68.5749C80.2839 68.562 80.5525 68.7356 80.6308 68.9943C80.7829 69.4966 80.7956 70.5068 80.8003 71.4395C80.8017 71.7188 80.5529 71.9494 80.2407 71.956L77.6275 72.0109C77.3062 72.0177 77.0328 71.8063 76.9942 71.5211L76.6975 69.3303C76.6667 69.1037 76.8491 68.8966 77.1032 68.8713Z" opacity="0.600000024" fill="rgb(255,255,255)" fill-rule="nonzero" />
							</g>
							<g id="Group">
								<path id="Vector" d="M80.8823 79.4838C80.8793 79.4839 80.8763 79.484 80.8733 79.4841L77.6034 79.5529C77.1362 79.5628 76.7409 79.2525 76.6837 78.8311L76.3125 76.0896C76.2907 75.9286 76.3359 75.7674 76.4396 75.6357C76.5557 75.4883 76.7352 75.3925 76.9322 75.3728C77.207 75.3456 77.5938 75.3005 78.0034 75.2529C78.8657 75.1525 79.939 75.0277 80.5442 75.0015C80.5486 75.0014 80.553 75.0011 80.5573 75.001C80.9872 74.9878 81.3651 75.239 81.4791 75.6155C81.6687 76.2416 81.6902 77.4372 81.6966 78.7113C81.6987 79.1252 81.3342 79.4699 80.8823 79.4838ZM76.957 75.6235C76.8275 75.6363 76.7107 75.6977 76.6366 75.7918C76.5755 75.8693 76.5488 75.963 76.5613 76.0556L76.9325 78.7971C76.9724 79.0916 77.2586 79.3083 77.5981 79.3011L80.8681 79.2323C80.8702 79.2322 80.8724 79.2322 80.8746 79.2321C81.1914 79.2224 81.4469 78.9905 81.4455 78.7126C81.4391 77.4577 81.4185 76.2823 81.2388 75.6885C81.1582 75.4226 80.87 75.2374 80.555 75.2531C79.9589 75.2789 78.8907 75.4032 78.0324 75.5031C77.6217 75.5508 77.2338 75.5959 76.957 75.6235Z" fill="rgb(255,255,255)" fill-rule="nonzero" />
								<path id="Vector" d="M77.3173 75.8967C78.0026 75.8286 79.4905 75.6309 80.1982 75.6003C80.498 75.5874 80.7666 75.761 80.8449 76.0196C80.997 76.522 81.0097 77.5322 81.0144 78.4649C81.0158 78.7442 80.767 78.9748 80.4548 78.9814L77.8416 79.0363C77.5203 79.0431 77.2469 78.8316 77.2083 78.5465L76.9116 76.3557C76.8809 76.1291 77.0633 75.922 77.3173 75.8967Z" opacity="0.600000024" fill="rgb(255,255,255)" fill-rule="nonzero" />
							</g>
							<g id="Group">
								<path id="Vector" d="M81.0966 86.5092C81.0937 86.5093 81.0907 86.5094 81.0877 86.5095L77.8177 86.5783C77.3506 86.5882 76.9552 86.2779 76.8981 85.8564L76.5268 83.115C76.505 82.954 76.5502 82.7928 76.654 82.6611C76.7701 82.5137 76.9495 82.4179 77.1465 82.3982C77.4214 82.371 77.8082 82.3259 78.2178 82.2783C79.0801 82.1779 80.1534 82.0531 80.7585 82.0269C80.7629 82.0268 80.7674 82.0265 80.7717 82.0264C81.2016 82.0132 81.5795 82.2644 81.6935 82.6409C81.8831 83.267 81.9046 84.4625 81.911 85.7367C81.9131 86.1505 81.5486 86.4953 81.0966 86.5092ZM77.1713 82.6489C77.0418 82.6617 76.925 82.7231 76.851 82.8172C76.7899 82.8947 76.7632 82.9884 76.7757 83.081L77.1469 85.8225C77.1868 86.117 77.4729 86.3337 77.8124 86.3265L81.0824 86.2577C81.0846 86.2576 81.0868 86.2576 81.089 86.2575C81.4058 86.2478 81.6612 86.0159 81.6599 85.7379C81.6535 84.4831 81.6329 83.3077 81.4532 82.7139C81.3726 82.4479 81.0843 82.2619 80.7693 82.2785C80.1732 82.3043 79.105 82.4286 78.2467 82.5285C77.8361 82.5762 77.4482 82.6213 77.1713 82.6489Z" fill="rgb(255,255,255)" fill-rule="nonzero" />
								<path id="Vector" d="M77.5316 82.9221C78.2169 82.854 79.7049 82.6562 80.4125 82.6257C80.7123 82.6127 80.981 82.7864 81.0593 83.045C81.2113 83.5474 81.224 84.5576 81.2288 85.4902C81.2302 85.7696 80.9813 86.0002 80.6691 86.0067L78.056 86.0617C77.7347 86.0685 77.4613 85.857 77.4226 85.5719L77.1259 83.3811C77.0952 83.1545 77.2776 82.9474 77.5316 82.9221Z" opacity="0.600000024" fill="rgb(255,255,255)" fill-rule="nonzero" />
							</g>
						</g>
					</g>
					<g id="Group">
						<g id="Group">
							<g id="Group" opacity="0.800000012">
								<path id="Vector" d="M56.5283 32.8122C56.4424 32.7063 56.3076 32.6623 56.1647 32.6653L43.1524 32.939L42.8237 31.892C42.778 31.7462 42.6413 31.6528 42.4866 31.6569L40.7 31.7039C40.5084 31.709 40.3533 31.8425 40.3533 32.0343C40.3533 32.226 40.5084 32.3518 40.7 32.3473L42.2267 32.3111L44.9893 41.1628C45.0358 41.3118 45.1753 41.4143 45.3334 41.4164L54.4667 41.5394C54.681 41.5423 54.855 41.4074 54.855 41.2042C54.855 41.001 54.681 40.8618 54.4667 40.8595L45.5999 40.7637L44.8883 38.4654L54.6321 38.4802C54.8316 38.4805 55.0075 38.3496 55.0634 38.1681L56.6012 33.1821C56.6413 33.052 56.6143 32.9181 56.5283 32.8122Z" fill="rgb(255,255,255)" fill-rule="nonzero" />
								<path id="Vector" d="M46.67 41.9621C45.9185 41.9504 45.3105 42.5368 45.3105 43.2694C45.3105 44.0019 45.9185 44.6139 46.67 44.6337C47.426 44.6536 48.0444 44.0673 48.0444 43.3267C48.0444 42.5861 47.4259 41.9739 46.67 41.9621ZM46.67 43.9212C46.3188 43.913 46.0337 43.6274 46.0337 43.2845C46.0337 42.9417 46.3188 42.668 46.67 42.6745C47.0222 42.681 47.3095 42.9667 47.3095 43.3113C47.3095 43.6559 47.0222 43.9295 46.67 43.9212Z" fill="rgb(255,255,255)" fill-rule="nonzero" />
								<path id="Vector" d="M52.7585 42.0573C51.9698 42.045 51.3318 42.6455 51.3318 43.396C51.3318 44.1464 51.9698 44.7736 52.7585 44.7944C53.5521 44.8153 54.2014 44.215 54.2014 43.4561C54.2014 42.6972 53.5521 42.0697 52.7585 42.0573ZM52.7585 44.0645C52.3899 44.0559 52.0907 43.7631 52.0907 43.4118C52.0907 43.0606 52.3899 42.7804 52.7585 42.7872C53.1282 42.794 53.4298 43.0868 53.4298 43.4399C53.4298 43.793 53.1282 44.0732 52.7585 44.0645Z" fill="rgb(255,255,255)" fill-rule="nonzero" />
							</g>
						</g>
						<path id="Vector" d="M49.0764 48.1206C42.8006 48.1206 37.6948 43.0009 37.6948 36.708C37.6948 30.4151 42.8006 25.2954 49.0764 25.2954C55.3522 25.2954 60.4579 30.4151 60.4579 36.708C60.4579 43.0009 55.3522 48.1206 49.0764 48.1206ZM49.0764 26.2706C43.3369 26.2706 38.6674 30.9528 38.6674 36.708C38.6674 42.4632 43.3368 47.1454 49.0764 47.1454C54.8159 47.1454 59.4854 42.4632 59.4854 36.708C59.4854 30.9528 54.8159 26.2706 49.0764 26.2706Z" opacity="0.810000002" fill="rgb(255,255,255)" fill-rule="nonzero" />
					</g>
				</g>
				<path id="Vector" d="M62.3855 12.832C60.7289 11.6763 59.2884 11.6992 58.2744 11.9993C57.3494 12.273 56.7499 13.1685 56.8379 14.1315L57.2752 18.9176L62.4789 19.3807C62.4789 19.3807 65.6344 15.0983 62.3855 12.832ZM60.0971 16.6932C59.3805 16.6932 58.7996 16.1107 58.7996 15.3921C58.7996 14.6736 59.3805 14.0911 60.0971 14.0911C60.8137 14.0911 61.3947 14.6736 61.3947 15.3921C61.3947 16.1107 60.8137 16.6932 60.0971 16.6932Z" fill="rgb(73,174,68)" fill-rule="nonzero" />
				<path id="Vector" d="M62.3855 12.832C60.7289 11.6763 59.2884 11.6992 58.2744 11.9993C57.3494 12.273 56.7499 13.1685 56.8379 14.1315L57.2752 18.9176L62.4789 19.3807C62.4789 19.3807 65.6344 15.0983 62.3855 12.832ZM60.0971 16.6932C59.3805 16.6932 58.7996 16.1107 58.7996 15.3921C58.7996 14.6736 59.3805 14.0911 60.0971 14.0911C60.8137 14.0911 61.3947 14.6736 61.3947 15.3921C61.3947 16.1107 60.8137 16.6932 60.0971 16.6932Z" fill="rgb(0,0,0)" fill-opacity="0.200000003" fill-rule="nonzero" />
				<path id="Vector" d="M57.795 16.9041C57.7309 16.9041 57.6761 16.855 57.6702 16.7896L57.6005 16.0274C57.5941 15.9582 57.645 15.897 57.714 15.8906C57.7845 15.8839 57.8443 15.9352 57.8505 16.0046L57.9202 16.7668C57.9265 16.836 57.8756 16.8972 57.8066 16.9036C57.8027 16.904 57.7988 16.9041 57.795 16.9041ZM57.6586 15.4104C57.5944 15.4104 57.5396 15.3613 57.5337 15.296L57.4808 14.7173C57.3969 13.7999 57.9726 12.9457 58.8496 12.6862C59.4706 12.5023 60.1105 12.476 60.7514 12.6078C60.8193 12.6217 60.8631 12.6884 60.8492 12.7565C60.8353 12.8245 60.7694 12.868 60.701 12.8545C60.1007 12.7313 59.5018 12.7557 58.9206 12.9276C58.1583 13.1533 57.6579 13.8963 57.7308 14.6944L57.7837 15.2731C57.7901 15.3423 57.7392 15.4035 57.6702 15.4099C57.6662 15.4103 57.6624 15.4104 57.6586 15.4104Z" fill="rgb(255,255,255)" fill-rule="nonzero" />
				<path id="Vector" d="M50.1733 22.0105L50.1733 19.6042C50.1733 18.7735 50.8599 18.1082 51.6878 18.1366L68.2332 18.705C68.9674 18.7303 69.5621 19.3114 69.6061 20.0468L69.7443 22.3589L50.1733 22.0105Z" fill="rgb(73,174,68)" fill-rule="nonzero" />
				<path id="Vector" d="M50.1733 22.0105L50.1733 19.6042C50.1733 18.7735 50.8599 18.1082 51.6878 18.1366L68.2332 18.705C68.9674 18.7303 69.5621 19.3114 69.6061 20.0468L69.7443 22.3589L50.1733 22.0105Z" fill="rgb(0,0,0)" fill-opacity="0.200000003" fill-rule="nonzero" />
				<path id="Vector" d="M56.3425 19.0438L55.631 19.0438C55.5616 19.0438 55.5054 18.9875 55.5054 18.9179C55.5054 18.8483 55.5616 18.792 55.631 18.792L56.3425 18.792C56.4118 18.792 56.4681 18.8483 56.4681 18.9179C56.4681 18.9875 56.4118 19.0438 56.3425 19.0438Z" fill="rgb(255,255,255)" fill-rule="nonzero" />
				<path id="Vector" d="M51.0687 21.2554C50.9993 21.2554 50.9431 21.1991 50.9431 21.1295L50.9431 20.156C50.9431 19.4039 51.5533 18.792 52.3034 18.792L54.9194 18.792C54.9887 18.792 55.0449 18.8483 55.0449 18.9179C55.0449 18.9875 54.9887 19.0438 54.9194 19.0438L52.3034 19.0438C51.6919 19.0438 51.1942 19.5428 51.1942 20.156L51.1942 21.1295C51.1942 21.1991 51.138 21.2554 51.0687 21.2554Z" fill="rgb(255,255,255)" fill-rule="nonzero" />
				<path id="Vector" d="M43.4319 22.6185C43.4719 21.7852 44.1572 21.1302 44.9892 21.1302L73.9218 21.1294C74.9622 21.1294 75.8515 21.8801 76.029 22.908L76.0535 23.0498C76.2479 24.1757 75.3834 25.2055 74.2439 25.2055L44.5608 25.2055C43.8788 25.2055 43.3354 24.6337 43.3681 23.9507L43.4319 22.6185Z" fill="rgb(133,201,130)" fill-rule="nonzero" />
			</g>
			<g id="Group">
				<g id="Group">
					<g id="Group">
						<path id="Vector" d="M40.7629 51.8739C40.7629 51.8739 40.2194 50.4394 39.5846 50.5708C38.9498 50.7022 38.2554 51.1911 38.2554 51.1911L37.2356 52.5741C37.2356 52.5741 40.0984 53.7049 41.1052 53.0569C41.1052 53.0569 44.0293 53.5635 47.7219 52.9559C47.1874 51.8243 46.8688 50.6914 46.6817 49.812C44.8114 50.8735 42.7969 51.6664 40.7629 51.8739Z" fill="url(#paint_linear_0)" fill-rule="nonzero" />
						<path id="Vector" d="M56.2524 41.4688C56.2524 41.4688 52.0658 46.7562 46.6819 49.8121C46.869 50.6915 47.1876 51.8244 47.7221 52.956C50.515 52.4965 53.7474 51.3997 56.4878 48.9628L56.2524 41.4688Z" fill="url(#paint_linear_1)" fill-rule="nonzero" />
					</g>
					<path id="Vector" d="M61.473 64.9039C60.6543 61.0043 59.8355 58.7467 57.0941 51.3551C56.2314 49.029 55.448 46.6756 55.8266 44.223L56.2519 41.4686C56.2519 41.4686 61.5795 39.6608 67.4851 41.3924C67.4851 41.3924 75.5423 44.9021 70.0696 62.2357C67.6029 65.0031 64.716 65.7918 61.473 64.9039Z" fill="url(#paint_linear_2)" fill-rule="nonzero" />
					<path id="Vector" d="M57.1589 37.9528L58.5404 41.2807C58.6277 41.4909 58.8163 41.6406 59.0401 41.6791C59.8365 41.8161 61.763 42.0301 63.0281 41.1959C63.1789 41.0965 63.2172 40.8911 63.1141 40.7426L60.5618 37.0684L57.1589 37.9528Z" fill="url(#paint_linear_3)" fill-rule="nonzero" />
					<g id="Group">
						<path id="Vector" d="M58.5875 32.8616C58.5295 32.9163 56.1389 37.6237 56.1389 37.6237L58.8484 38.9353L61.7753 34.8113C61.7753 34.8113 59.5588 31.9447 58.5875 32.8616Z" fill="url(#paint_linear_4)" fill-rule="nonzero" />
						<path id="Vector" d="M60.5442 35.3058L59.1928 37.5646C59.1723 37.5989 59.1479 37.6298 59.1187 37.6571C58.9579 37.8072 58.4075 38.2439 57.9819 37.6494C57.6193 37.1426 57.279 36.6819 56.9144 36.4919C56.7015 36.381 56.4394 36.4696 56.3313 36.6844C56.1087 37.1269 55.6774 38.0289 55.4065 38.8842C55.3386 39.0986 55.4489 39.3288 55.6568 39.4132C56.2055 39.6361 57.2898 40.0392 58.2521 40.1724C58.4101 40.1942 58.5666 40.1274 58.6606 39.9982C59.0746 39.4295 60.2415 37.8402 60.6397 37.4424C61.0097 37.0729 61.6925 37.2122 62.0002 37.3009C62.117 37.3346 62.2413 37.3183 62.3454 37.2555C62.6576 37.0669 63.2024 36.5974 62.704 35.8025C62.5801 35.6048 62.6433 35.3416 62.8378 35.2133C63.1863 34.9834 63.5645 34.5519 63.2042 33.8531C62.8395 33.1457 62.1881 33.0821 61.7444 33.1365C61.5481 33.1606 61.3488 33.0573 61.2735 32.874C61.24 32.7924 61.1738 32.7229 61.0505 32.6978C60.818 32.6506 60.6654 32.4373 60.711 32.2038C60.7892 31.8035 60.7303 31.2835 60.0929 30.9321C58.9238 30.2876 57.8998 31.3378 57.6394 32.2243C57.3789 33.1109 58.6861 33.7374 59.5083 33.8419C60.1123 33.9188 60.4434 34.5797 60.5767 34.9252C60.625 35.0505 60.6131 35.1904 60.5442 35.3058Z" fill="url(#paint_linear_5)" fill-rule="nonzero" />
						<path id="Vector" d="M60.0706 38.1189C60.0706 38.1189 60.6521 36.7469 61.3175 36.8029C61.9829 36.8589 62.5066 37.5237 61.6819 38.2709C60.6561 39.2004 60.0706 38.1189 60.0706 38.1189Z" fill="url(#paint_linear_6)" fill-rule="nonzero" />
					</g>
					<g id="Group">
						<path id="Vector" d="M60.949 99.2715C62.2357 99.383 64.4689 99.5642 66.2295 99.6419C67.2877 99.6886 67.897 99.5847 68.2479 99.4438C68.2473 99.4835 68.2462 99.521 68.2447 99.5558C68.2364 99.7415 68.0858 99.8902 67.8987 99.9006C64.572 100.087 61.9263 99.965 60.9845 99.9076C60.7897 99.8957 60.6736 99.6834 60.7732 99.5169C60.8231 99.4337 60.8834 99.3521 60.949 99.2715Z" fill="url(#paint_linear_7)" fill-rule="nonzero" />
						<path id="Vector" d="M66.2292 99.6417C64.4687 99.564 62.2355 99.3829 60.9487 99.2713C62.2138 97.715 66.2292 96.666 66.2292 96.666L67.3633 96.666C68.1433 97.7934 68.2562 98.8668 68.2477 99.4437C67.8968 99.5845 67.2875 99.6884 66.2292 99.6417Z" fill="url(#paint_linear_8)" fill-rule="nonzero" />
						<path id="Vector" d="M67.5545 94.8096L67.4483 96.9154C67.4369 97.1435 67.2666 97.3351 67.0388 97.3678C66.8123 97.4003 66.5088 97.4044 66.187 97.297C65.989 97.2309 65.842 97.0636 65.8054 96.8596L65.4387 94.8096L67.5545 94.8096Z" fill="url(#paint_linear_9)" fill-rule="nonzero" />
					</g>
					<g id="Group">
						<g id="Group">
							<path id="Vector" d="M82.2846 99.6258C82.8426 99.5477 83.095 99.2571 83.2009 98.9463C83.2016 98.9491 83.2023 98.9519 83.203 98.9547C83.2851 99.2825 83.0948 99.6221 82.7143 99.7838C82.2544 99.979 81.7516 100.012 81.3612 99.9962C80.9424 99.9789 80.558 99.8051 80.3467 99.527L80.3435 99.5228C80.7639 99.7314 81.354 99.7559 82.2846 99.6258Z" fill="url(#paint_linear_10)" fill-rule="nonzero" />
							<path id="Vector" d="M79.6537 94.7961L80.589 94.7961C82.0136 94.7669 82.9082 97.7799 83.2009 98.9466C83.0951 99.2574 82.8426 99.548 82.2846 99.626C81.3541 99.7562 80.7639 99.7316 80.3435 99.523C79.5739 98.5075 79.1923 97.0201 79.0089 96.1521C78.8003 95.1649 79.6537 94.7961 79.6537 94.7961Z" fill="url(#paint_linear_11)" fill-rule="nonzero" />
						</g>
						<path id="Vector" d="M80.4686 92.8418L80.988 94.913C81.0516 95.1669 80.9304 95.4296 80.6963 95.55C80.4057 95.6995 79.9967 95.8567 79.6208 95.8112C79.444 95.7898 79.2971 95.6649 79.2387 95.498L78.4763 93.3189L80.4686 92.8418Z" fill="url(#paint_linear_12)" fill-rule="nonzero" />
					</g>
					<path id="Vector" d="M81.0878 93.4401C80.4417 94.0148 78.34 94.0907 78.34 94.0907C70.7697 75.8713 67.6135 70.8557 67.6135 70.8557C68.7066 77.7325 67.8491 95.3842 67.8491 95.3842C66.5998 95.937 64.9892 95.3842 64.9892 95.3842C64.8878 84.126 63.307 72.0286 61.2683 64.288C66.385 64.1727 69.1657 63.0542 70.0542 62.3496C74.3193 69.2446 81.0878 93.4401 81.0878 93.4401Z" fill="url(#paint_linear_13)" fill-rule="nonzero" />
					<g id="Group">
						<path id="Vector" d="M59.9795 69.3793L60.921 75.2511C61.0852 76.275 62.031 76.9852 63.0624 76.8591L77.1539 75.1356C77.8432 75.0512 78.366 74.4741 78.3798 73.781C78.41 72.2638 78.3505 69.5636 77.7155 67.1035L59.9795 69.3793Z" fill="url(#paint_linear_14)" fill-rule="nonzero" />
						<path id="Vector" d="M63.016 76.4953C63.0153 76.4953 63.0145 76.4953 63.0136 76.4952C62.9002 76.4888 62.7867 76.472 62.6763 76.4451C62.6539 76.4397 62.6401 76.417 62.6456 76.3945C62.651 76.3721 62.6732 76.3585 62.696 76.3637C62.8016 76.3894 62.91 76.4055 63.0184 76.4116C63.0414 76.4129 63.059 76.4326 63.0577 76.4557C63.0564 76.4781 63.0381 76.4953 63.016 76.4953ZM63.7915 76.4299C63.7706 76.4299 63.7526 76.4143 63.75 76.3931C63.7472 76.3701 63.7636 76.3492 63.7864 76.3465L64.118 76.3059C64.143 76.3029 64.1618 76.3195 64.1645 76.3424C64.1674 76.3654 64.151 76.3862 64.1282 76.389L63.7966 76.4295C63.7948 76.4298 63.7931 76.4299 63.7915 76.4299ZM64.8968 76.2947C64.8759 76.2947 64.858 76.2791 64.8554 76.2579C64.8525 76.2349 64.8689 76.2141 64.8917 76.2113L65.2233 76.1707C65.2484 76.1679 65.2671 76.1842 65.2699 76.2072C65.2727 76.2302 65.2563 76.2511 65.2335 76.2538L64.9019 76.2944C64.9001 76.2946 64.8984 76.2947 64.8968 76.2947ZM66.0021 76.1596C65.9812 76.1596 65.9633 76.144 65.9607 76.1227C65.9579 76.0997 65.9743 76.0789 65.997 76.0761L66.3286 76.0356C66.3537 76.0322 66.3725 76.0491 66.3752 76.0721C66.378 76.095 66.3617 76.1159 66.3389 76.1187L66.0073 76.1592C66.0055 76.1594 66.0038 76.1596 66.0021 76.1596ZM61.9896 76.1089C61.9806 76.1089 61.9715 76.1061 61.964 76.1001C61.8742 76.0301 61.7904 75.9515 61.7147 75.8665C61.6994 75.8492 61.701 75.8227 61.7182 75.8074C61.7354 75.7919 61.7618 75.7936 61.7772 75.8108C61.8494 75.892 61.9294 75.9671 62.0152 76.0341C62.0334 76.0482 62.0367 76.0745 62.0226 76.0928C62.0143 76.1034 62.0021 76.1089 61.9896 76.1089ZM67.1074 76.0243C67.0865 76.0243 67.0686 76.0088 67.066 75.9875C67.0632 75.9646 67.0796 75.9437 67.1024 75.9409L67.4339 75.9003C67.459 75.8973 67.4778 75.9139 67.4805 75.9368C67.4834 75.9597 67.467 75.9806 67.4442 75.9834L67.1126 76.024C67.1108 76.0243 67.1091 76.0243 67.1074 76.0243ZM68.2128 75.8891C68.1919 75.8891 68.174 75.8736 68.1714 75.8523C68.1685 75.8294 68.1849 75.8085 68.2077 75.8057L68.5393 75.7651C68.5643 75.7616 68.5831 75.7786 68.5858 75.8016C68.5887 75.8246 68.5723 75.8454 68.5495 75.8482L68.2179 75.8888C68.2161 75.8891 68.2145 75.8891 68.2128 75.8891ZM69.3181 75.754C69.2972 75.754 69.2793 75.7384 69.2767 75.7171C69.2739 75.6941 69.2902 75.6733 69.313 75.6705L69.6446 75.63C69.6697 75.6267 69.6884 75.6436 69.6912 75.6665C69.694 75.6895 69.6776 75.7103 69.6548 75.7131L69.3232 75.7536C69.3214 75.7538 69.3198 75.754 69.3181 75.754ZM70.4235 75.6187C70.4026 75.6187 70.3847 75.6032 70.3821 75.582C70.3793 75.559 70.3956 75.5381 70.4184 75.5353L70.75 75.4948C70.775 75.4918 70.7938 75.5084 70.7966 75.5313C70.7994 75.5543 70.7831 75.5751 70.7603 75.5779L70.4287 75.6185C70.4269 75.6187 70.4252 75.6187 70.4235 75.6187ZM71.5289 75.4836C71.508 75.4836 71.4901 75.468 71.4875 75.4468C71.4846 75.4238 71.501 75.4029 71.5238 75.4002L71.8554 75.3596C71.8803 75.3561 71.8992 75.3732 71.9019 75.3961C71.9048 75.4191 71.8884 75.4399 71.8656 75.4427L71.534 75.4833C71.5322 75.4835 71.5305 75.4836 71.5289 75.4836ZM72.6342 75.3484C72.6133 75.3484 72.5954 75.3328 72.5928 75.3116C72.5899 75.2887 72.6063 75.2678 72.6291 75.265L72.9607 75.2244C72.9856 75.2212 73.0045 75.2379 73.0073 75.2608C73.0101 75.2838 72.9937 75.3047 72.9709 75.3074L72.6393 75.3481C72.6375 75.3483 72.6359 75.3484 72.6342 75.3484ZM73.7396 75.2132C73.7186 75.2132 73.7007 75.1976 73.6981 75.1764C73.6953 75.1534 73.7117 75.1326 73.7345 75.1298L74.0661 75.0892C74.091 75.0862 74.1099 75.1027 74.1126 75.1257C74.1154 75.1486 74.0991 75.1695 74.0763 75.1723L73.7447 75.2129C73.7429 75.2131 73.7412 75.2132 73.7396 75.2132ZM61.3657 75.2053C61.3479 75.2053 61.3314 75.1937 61.3258 75.1757C61.3001 75.0925 61.28 75.0062 61.2661 74.9189L61.2538 74.843C61.2502 74.8203 61.2656 74.7987 61.2884 74.7951C61.3115 74.7907 61.3325 74.8069 61.3362 74.8297L61.3484 74.9057C61.3617 74.989 61.3809 75.0715 61.4055 75.1509C61.4123 75.173 61.4001 75.1965 61.378 75.2033C61.3739 75.2046 61.3697 75.2053 61.3657 75.2053ZM74.8449 75.078C74.8239 75.078 74.806 75.0624 74.8034 75.0412C74.8006 75.0182 74.817 74.9973 74.8398 74.9946L75.1714 74.954C75.1963 74.9506 75.2152 74.9676 75.2179 74.9905C75.2207 75.0135 75.2044 75.0343 75.1816 75.0371L74.85 75.0777C74.8482 75.0779 74.8465 75.078 74.8449 75.078ZM75.9502 74.9428C75.9293 74.9428 75.9114 74.9272 75.9088 74.906C75.9059 74.883 75.9223 74.8622 75.9451 74.8594L76.2767 74.8188C76.3016 74.8157 76.3205 74.8324 76.3232 74.8553C76.3261 74.8783 76.3097 74.8992 76.2869 74.9019L75.9553 74.9425C75.9535 74.9427 75.9519 74.9428 75.9502 74.9428ZM77.0489 74.7743C77.0318 74.7743 77.0158 74.7637 77.0096 74.7466C77.0018 74.7249 77.013 74.7009 77.0346 74.6931C77.1362 74.6562 77.2328 74.6066 77.3218 74.5455C77.3408 74.5325 77.3669 74.5373 77.3799 74.5564C77.3929 74.5756 77.3881 74.6015 77.3691 74.6147C77.2742 74.6797 77.1713 74.7325 77.0631 74.7717C77.0584 74.7735 77.0536 74.7743 77.0489 74.7743ZM61.1713 74.1066C61.1511 74.1066 61.1333 74.0919 61.1301 74.0713L61.0772 73.7407C61.0735 73.7178 61.0889 73.6963 61.1117 73.6927C61.1355 73.689 61.1561 73.7046 61.1596 73.7274L61.2125 74.0582C61.2162 74.0809 61.2008 74.1025 61.178 74.1062C61.1757 74.1065 61.1735 74.1066 61.1713 74.1066ZM77.8274 74.0223C77.8221 74.0223 77.8169 74.0213 77.8118 74.0192C77.7903 74.0106 77.78 73.9862 77.7886 73.9648C77.829 73.8643 77.8564 73.7591 77.8702 73.652C77.8732 73.629 77.8937 73.6128 77.917 73.6158C77.9399 73.6188 77.956 73.6398 77.953 73.6627C77.9383 73.7769 77.9091 73.8891 77.866 73.9961C77.8595 74.0124 77.8438 74.0223 77.8274 74.0223ZM60.9947 73.0042C60.9745 73.0042 60.9568 72.9895 60.9535 72.9689L60.9004 72.6382C60.8967 72.6153 60.9122 72.5938 60.9349 72.5902C60.9582 72.5861 60.9791 72.6022 60.9828 72.6249L61.0359 72.9556C61.0396 72.9784 61.0241 72.9999 61.0013 73.0036C60.9991 73.004 60.9968 73.0042 60.9947 73.0042ZM77.9283 72.9182C77.9052 72.9182 77.8864 72.8995 77.8864 72.8764C77.8863 72.7684 77.8856 72.6568 77.8841 72.5418C77.8838 72.5187 77.9023 72.4997 77.9253 72.4994C77.9481 72.5007 77.9673 72.5175 77.9677 72.5407C77.9692 72.6561 77.9699 72.768 77.97 72.8763C77.97 72.8994 77.9514 72.9182 77.9283 72.9182ZM60.8179 71.9018C60.7977 71.9018 60.7801 71.8871 60.7767 71.8665L60.7236 71.5358C60.72 71.513 60.7354 71.4915 60.7582 71.4878C60.7822 71.4832 60.8023 71.4998 60.806 71.5225L60.8591 71.8532C60.8628 71.8761 60.8473 71.8976 60.8245 71.9012C60.8223 71.9016 60.82 71.9018 60.8179 71.9018ZM77.9061 71.8015C77.8838 71.8015 77.8652 71.7838 77.8644 71.7612C77.8602 71.6517 77.8554 71.5402 77.8497 71.4269C77.8485 71.4038 77.8662 71.3842 77.8892 71.383C77.9131 71.3831 77.932 71.3997 77.933 71.4228C77.9387 71.5363 77.9436 71.6481 77.9477 71.758C77.9487 71.7812 77.9306 71.8006 77.9076 71.8015C77.9071 71.8015 77.9065 71.8015 77.9061 71.8015ZM60.6411 70.7994C60.6209 70.7994 60.6031 70.7847 60.5999 70.7641L60.5469 70.4333C60.5432 70.4105 60.5587 70.389 60.5815 70.3853C60.6047 70.3816 60.6258 70.3973 60.6293 70.4201L60.6823 70.7508C60.6859 70.7736 60.6705 70.7951 60.6477 70.7988C60.6455 70.7992 60.6432 70.7994 60.6411 70.7994ZM77.8415 70.6865C77.8199 70.6865 77.8016 70.6699 77.7998 70.6479C77.7912 70.5379 77.7819 70.4267 77.7717 70.3147C77.7695 70.2916 77.7865 70.2713 77.8094 70.2691C77.8329 70.2664 77.8528 70.2841 77.8548 70.3071C77.865 70.4194 77.8745 70.531 77.8832 70.6414C77.8849 70.6644 77.8677 70.6846 77.8448 70.6864C77.8436 70.6865 77.8426 70.6865 77.8415 70.6865ZM60.4644 69.697C60.4443 69.697 60.4266 69.6822 60.4232 69.6617L60.3702 69.331C60.3665 69.3081 60.3819 69.2866 60.4047 69.283C60.4287 69.2793 60.4489 69.2948 60.4525 69.3177L60.5056 69.6484C60.5093 69.6712 60.4939 69.6927 60.4711 69.6963C60.4689 69.6967 60.4666 69.697 60.4644 69.697ZM77.7301 69.5755C77.7094 69.5755 77.6913 69.5599 77.6887 69.5388C77.6751 69.4287 77.6606 69.3181 77.6452 69.2072C77.642 69.1842 77.658 69.1631 77.6808 69.1599C77.7049 69.1569 77.7248 69.1727 77.7279 69.1956C77.7434 69.3069 77.7579 69.418 77.7716 69.5284C77.7744 69.5514 77.7582 69.5723 77.7353 69.5751C77.7335 69.5754 77.7318 69.5755 77.7301 69.5755ZM60.5727 69.3455C60.552 69.3455 60.534 69.3301 60.5313 69.3089C60.5283 69.286 60.5446 69.2651 60.5673 69.2621L60.8987 69.2196C60.9251 69.2162 60.9425 69.233 60.9454 69.2558C60.9484 69.2787 60.9322 69.2997 60.9094 69.3027L60.578 69.3452C60.5762 69.3454 60.5744 69.3455 60.5727 69.3455ZM61.6773 69.2038C61.6566 69.2038 61.6387 69.1883 61.6359 69.1672C61.633 69.1442 61.6492 69.1233 61.672 69.1203L62.0034 69.0778C62.0295 69.0747 62.0472 69.0913 62.0501 69.1141C62.0531 69.137 62.0368 69.158 62.014 69.1609L61.6827 69.2034C61.6808 69.2037 61.679 69.2038 61.6773 69.2038ZM62.7818 69.062C62.7611 69.062 62.7431 69.0466 62.7404 69.0254C62.7374 69.0025 62.7537 68.9816 62.7765 68.9786L63.1078 68.9361C63.1338 68.9333 63.1516 68.9494 63.1546 68.9723C63.1576 68.9952 63.1413 69.0162 63.1185 69.0192L62.7872 69.0617C62.7853 69.0619 62.7835 69.062 62.7818 69.062ZM63.8863 68.9203C63.8656 68.9203 63.8476 68.9048 63.8449 68.8837C63.8419 68.8608 63.8582 68.8398 63.881 68.8368L64.2123 68.7943C64.2381 68.791 64.2561 68.8078 64.2591 68.8306C64.262 68.8535 64.2458 68.8745 64.223 68.8774L63.8917 68.9199C63.8898 68.9202 63.888 68.9203 63.8863 68.9203ZM64.9908 68.7786C64.9701 68.7786 64.9521 68.7631 64.9494 68.742C64.9464 68.7191 64.9627 68.6981 64.9855 68.6951L65.3168 68.6526C65.3425 68.6496 65.3607 68.6661 65.3636 68.6889C65.3665 68.7118 65.3503 68.7327 65.3275 68.7357L64.9961 68.7782C64.9942 68.7785 64.9925 68.7786 64.9908 68.7786ZM66.0954 68.6368C66.0747 68.6368 66.0567 68.6214 66.054 68.6002C66.051 68.5773 66.0673 68.5564 66.0901 68.5534L66.4214 68.5109C66.4467 68.5081 66.4653 68.5243 66.4682 68.5471C66.4711 68.5701 66.4549 68.591 66.4321 68.594L66.1008 68.6365C66.0989 68.6367 66.0971 68.6368 66.0954 68.6368ZM67.1999 68.4951C67.1792 68.4951 67.1612 68.4796 67.1585 68.4585C67.1556 68.4356 67.1718 68.4147 67.1946 68.4117L67.5259 68.3692C67.5511 68.366 67.5698 68.3826 67.5727 68.4054C67.5757 68.4283 67.5594 68.4493 67.5366 68.4523L67.2053 68.4948C67.2034 68.495 67.2016 68.4951 67.1999 68.4951ZM77.5646 68.4711C77.5447 68.4711 77.5271 68.4568 77.5235 68.4365C77.5041 68.327 77.4835 68.2175 77.4622 68.1081C77.4576 68.0853 77.4725 68.0634 77.495 68.0589C77.5178 68.0542 77.5397 68.0693 77.5441 68.0919C77.5657 68.2019 77.5862 68.3119 77.6057 68.4219C77.6097 68.4446 77.5947 68.4664 77.572 68.4705C77.5695 68.4708 77.567 68.4711 77.5646 68.4711ZM68.3044 68.3533C68.2837 68.3533 68.2657 68.3379 68.263 68.3168C68.2601 68.2939 68.2763 68.2729 68.2991 68.27L68.6304 68.2275C68.657 68.2245 68.6742 68.2409 68.6772 68.2637C68.6802 68.2866 68.6639 68.3076 68.6411 68.3106L68.3098 68.3531C68.3079 68.3533 68.3061 68.3533 68.3044 68.3533ZM69.4089 68.2117C69.3881 68.2117 69.3702 68.1962 69.3675 68.1751C69.3645 68.1521 69.3808 68.1312 69.4036 68.1282L69.7349 68.0857C69.7613 68.0822 69.7787 68.0992 69.7817 68.1219C69.7846 68.1449 69.7684 68.1658 69.7456 68.1688L69.4143 68.2113C69.4124 68.2116 69.4106 68.2117 69.4089 68.2117ZM70.5134 68.0699C70.4927 68.0699 70.4747 68.0545 70.472 68.0333C70.4691 68.0104 70.4853 67.9894 70.5081 67.9865L70.8394 67.944C70.8657 67.9408 70.8832 67.9575 70.8862 67.9802C70.8892 68.0032 70.8729 68.0241 70.8501 68.0271L70.5188 68.0696C70.5169 68.0698 70.5151 68.0699 70.5134 68.0699ZM71.6181 67.9282C71.5973 67.9282 71.5793 67.9128 71.5766 67.8916C71.5737 67.8687 71.5899 67.8478 71.6127 67.8448L71.9441 67.8023C71.97 67.7994 71.9879 67.8157 71.9908 67.8385C71.9938 67.8615 71.9775 67.8824 71.9547 67.8854L71.6234 67.9279C71.6215 67.9281 71.6197 67.9282 71.6181 67.9282ZM72.7225 67.7865C72.7018 67.7865 72.6838 67.771 72.6811 67.7499C72.6782 67.727 72.6944 67.706 72.7172 67.703L73.0485 67.6605C73.0743 67.6572 73.0924 67.674 73.0953 67.6968C73.0983 67.7197 73.082 67.7406 73.0592 67.7436L72.7279 67.7861C72.726 67.7864 72.7242 67.7865 72.7225 67.7865ZM73.827 67.6448C73.8063 67.6448 73.7883 67.6293 73.7856 67.6082C73.7826 67.5852 73.7989 67.5643 73.8217 67.5613L74.153 67.5188C74.1786 67.5158 74.1969 67.5322 74.1998 67.5551C74.2028 67.578 74.1865 67.5989 74.1637 67.6019L73.8324 67.6444C73.8305 67.6446 73.8287 67.6448 73.827 67.6448ZM74.9315 67.503C74.9108 67.503 74.8928 67.4876 74.8901 67.4664C74.8872 67.4435 74.9034 67.4226 74.9262 67.4196L75.2575 67.3771C75.2829 67.3743 75.3015 67.3904 75.3043 67.4133C75.3073 67.4362 75.291 67.4572 75.2682 67.4602L74.9369 67.5027C74.935 67.5029 74.9332 67.503 74.9315 67.503ZM77.3351 67.3786C77.3164 67.3786 77.2992 67.3658 77.2945 67.3467C77.283 67.2993 77.2711 67.252 77.259 67.2047L77.146 67.2192C77.1213 67.2225 77.1022 67.2058 77.0992 67.183C77.0963 67.1601 77.1125 67.1391 77.1353 67.1361L77.3214 67.1123L77.3306 67.1479C77.346 67.2073 77.361 67.2669 77.3757 67.3266C77.3812 67.3491 77.3675 67.3717 77.3451 67.3773C77.3418 67.3782 77.3384 67.3786 77.3351 67.3786ZM76.0361 67.3613C76.0154 67.3613 75.9974 67.3458 75.9947 67.3247C75.9918 67.3018 76.008 67.2808 76.0308 67.2778L76.3621 67.2353C76.3872 67.2321 76.4061 67.2488 76.4089 67.2716C76.4119 67.2945 76.3956 67.3154 76.3728 67.3184L76.0415 67.361C76.0396 67.3612 76.0378 67.3613 76.0361 67.3613Z" fill="rgb(255,255,255)" fill-rule="nonzero" />
						<path id="Vector" d="M63.5596 64.5698L63.5439 64.1097C63.5779 63.9949 63.6674 63.9054 63.7823 63.8716C64.2121 63.7453 65.2843 63.4826 65.8583 63.8079L66.0039 64.3263L63.5596 64.5698Z" fill="url(#paint_linear_15)" fill-rule="nonzero" />
						<path id="Vector" d="M64.8742 63.9563C64.7763 63.9939 64.6752 64.0068 64.5706 63.9949C64.4441 63.9804 64.3435 63.8814 64.3274 63.7554L64.1458 62.3315L64.8684 62.2388L65.05 63.6616C65.0661 63.7882 64.9936 63.9103 64.8742 63.9563Z" fill="url(#paint_linear_16)" fill-rule="nonzero" />
						<path id="Vector" d="M70.5591 63.6714L70.5435 63.2112C70.5774 63.0966 70.6669 63.007 70.7818 62.9732C71.2116 62.8468 72.2839 62.5842 72.8577 62.9095L73.0035 63.4279L70.5591 63.6714Z" fill="url(#paint_linear_17)" fill-rule="nonzero" />
						<path id="Vector" d="M71.8738 63.0579C71.7759 63.0956 71.6748 63.1085 71.5702 63.0965C71.4437 63.082 71.3431 62.9831 71.327 62.857L71.1262 61.2831L71.8489 61.1904L72.0496 62.7633C72.0657 62.8899 71.9932 63.012 71.8738 63.0579Z" fill="url(#paint_linear_18)" fill-rule="nonzero" />
						<path id="Vector" d="M64.1169 62.6901L71.8556 61.4349C72.032 61.4063 72.166 61.2588 72.1742 61.0806C72.1857 60.8312 72.1766 60.4612 72.0723 60.0898C71.9537 59.6674 71.5435 59.395 71.1063 59.4405C69.6521 59.5919 65.9614 60.0666 64.0302 61.1344C63.8259 61.2474 63.6899 61.4522 63.6641 61.6838C63.6395 61.9046 63.6414 62.1951 63.7464 62.4775C63.8023 62.6275 63.9586 62.7158 64.1169 62.6901Z" fill="url(#paint_linear_19)" fill-rule="nonzero" />
						<path id="Vector" d="M63.9265 62.3798C63.8759 62.3798 63.8301 62.345 63.8181 62.2934C63.8153 62.2806 63.7464 61.9779 63.7885 61.6722C63.8227 61.424 63.9871 61.2069 64.2178 61.1058C64.6379 60.9213 65.4445 60.5959 66.1266 60.4888C66.1875 60.4786 66.2443 60.521 66.2539 60.5819C66.2634 60.6427 66.2218 60.6999 66.161 60.7094C65.4793 60.8165 64.6373 61.1653 64.307 61.3103C64.1445 61.3816 64.033 61.5284 64.009 61.7027C63.9726 61.968 64.0344 62.2402 64.0351 62.2429C64.049 62.303 64.0117 62.363 63.9518 62.3769C63.9434 62.3789 63.9348 62.3798 63.9265 62.3798Z" fill="rgb(189,208,251)" fill-rule="nonzero" />
						<path id="Vector" d="M59.9314 64.8553C62.438 64.5009 73.2848 62.9929 76.4885 62.9697C76.7643 62.9677 77.0114 63.1386 77.1043 63.3977C77.3986 64.2189 78.0242 66.134 78.2281 68.0858C78.2558 68.3514 78.0907 68.5997 77.8363 68.6826L70.8088 70.9729L68.2507 71.3011L60.3819 70.7562C60.1045 70.737 59.8758 70.5329 59.8267 70.2598C59.6519 69.2871 59.2808 66.9999 59.3562 65.4874C59.3721 65.1659 59.6122 64.9004 59.9314 64.8553Z" fill="url(#paint_linear_20)" fill-rule="nonzero" />
						<path id="Vector" d="M68.2374 70.7125L67.896 70.6897C67.8729 70.6881 67.8556 70.6681 67.8571 70.645C67.8588 70.622 67.8785 70.6045 67.9017 70.6061L68.2349 70.6292L68.2697 70.6239C68.2948 70.6206 68.3135 70.6373 68.3165 70.6601C68.3195 70.6831 68.3032 70.704 68.2804 70.707L68.2374 70.7125ZM67.1212 70.6359C67.1202 70.6359 67.1193 70.6359 67.1183 70.6359L66.7851 70.6127C66.762 70.6111 66.7447 70.5911 66.7463 70.568C66.7478 70.5451 66.7673 70.5287 66.7908 70.5292L67.124 70.5523C67.1471 70.5539 67.1644 70.5739 67.1629 70.5969C67.1613 70.6191 67.143 70.6359 67.1212 70.6359ZM69.0482 70.6082C69.0275 70.6082 69.0095 70.5927 69.0068 70.5716C69.0038 70.5487 69.0201 70.5277 69.0429 70.5247L69.3742 70.4822C69.4007 70.4792 69.418 70.4957 69.421 70.5185C69.4239 70.5414 69.4077 70.5623 69.3849 70.5654L69.0536 70.6079C69.0516 70.6081 69.0499 70.6082 69.0482 70.6082ZM66.0103 70.559C66.0093 70.559 66.0084 70.559 66.0074 70.5589L65.6742 70.5359C65.6511 70.5342 65.6338 70.5142 65.6353 70.4912C65.637 70.4682 65.6589 70.4516 65.6799 70.4523L66.0131 70.4753C66.0362 70.4769 66.0535 70.4969 66.052 70.52C66.0504 70.5421 66.0321 70.559 66.0103 70.559ZM64.8995 70.4821C64.8985 70.4821 64.8976 70.4821 64.8967 70.482L64.5634 70.4589C64.5403 70.4573 64.523 70.4373 64.5246 70.4142C64.5262 70.3912 64.5476 70.3745 64.5691 70.3753L64.9024 70.3984C64.9254 70.4 64.9427 70.42 64.9412 70.4431C64.9396 70.4652 64.9213 70.4821 64.8995 70.4821ZM70.1527 70.4665C70.1319 70.4665 70.114 70.451 70.1113 70.4299C70.1083 70.4069 70.1246 70.386 70.1474 70.383L70.4787 70.3405C70.505 70.3377 70.5225 70.3539 70.5255 70.3767C70.5284 70.3997 70.5122 70.4206 70.4894 70.4236L70.158 70.4661C70.1562 70.4664 70.1544 70.4665 70.1527 70.4665ZM63.7886 70.4052C63.7876 70.4052 63.7867 70.4052 63.7857 70.4051L63.4525 70.382C63.4294 70.3804 63.4121 70.3604 63.4136 70.3374C63.4153 70.3142 63.4363 70.2974 63.4582 70.2984L63.7914 70.3215C63.8145 70.3231 63.8318 70.3431 63.8302 70.3662C63.8287 70.3883 63.8104 70.4052 63.7886 70.4052ZM62.6777 70.3282C62.6767 70.3282 62.6758 70.3282 62.6748 70.3281L62.3416 70.305C62.3186 70.3034 62.3012 70.2834 62.3027 70.2604C62.3044 70.2373 62.3251 70.2202 62.3473 70.2215L62.6805 70.2446C62.7036 70.2462 62.7209 70.2662 62.7194 70.2892C62.7178 70.3114 62.6995 70.3282 62.6777 70.3282ZM61.5667 70.2513C61.5658 70.2513 61.5649 70.2513 61.5639 70.2512L61.2306 70.2281C61.2076 70.2265 61.1903 70.2065 61.1918 70.1835C61.1935 70.1605 61.2138 70.1431 61.2363 70.1446L61.5696 70.1677C61.5926 70.1693 61.6099 70.1893 61.6084 70.2123C61.6069 70.2345 61.5886 70.2513 61.5667 70.2513ZM71.2331 70.2168C71.2155 70.2168 71.1992 70.2056 71.1933 70.1878C71.1862 70.1659 71.1983 70.1422 71.2201 70.1351L71.5378 70.0316C71.5598 70.0245 71.5833 70.0364 71.5904 70.0585C71.5977 70.0804 71.5856 70.1041 71.5637 70.1112L71.246 70.2147C71.2418 70.2161 71.2374 70.2168 71.2331 70.2168ZM60.4559 70.1743C60.4549 70.1743 60.454 70.1743 60.453 70.1742L60.4039 70.1709L60.3982 70.1387C60.3817 70.0467 60.3631 69.9412 60.3431 69.8246C60.3391 69.8018 60.3545 69.7801 60.3772 69.7762C60.401 69.7725 60.4215 69.7877 60.4254 69.8104C60.4432 69.915 60.46 70.0104 60.4752 70.0954C60.4894 70.1028 60.4987 70.1182 60.4975 70.1353C60.496 70.1574 60.4777 70.1743 60.4559 70.1743ZM72.2921 69.8717C72.2746 69.8717 72.2582 69.8605 72.2525 69.8427C72.2452 69.8207 72.2573 69.7971 72.2792 69.79L72.5969 69.6864C72.6187 69.6795 72.6425 69.6913 72.6495 69.7133C72.6567 69.7352 72.6446 69.7589 72.6228 69.766L72.3051 69.8696C72.3008 69.871 72.2964 69.8717 72.2921 69.8717ZM73.3511 69.5266C73.3336 69.5266 73.3172 69.5153 73.3115 69.4976C73.3043 69.4756 73.3164 69.452 73.3382 69.4448L73.6559 69.3413C73.678 69.3342 73.7014 69.3462 73.7085 69.3681C73.7158 69.3902 73.7037 69.4138 73.6818 69.421L73.3641 69.5245C73.3598 69.5259 73.3554 69.5266 73.3511 69.5266ZM74.4102 69.1814C74.3926 69.1814 74.3762 69.1701 74.3705 69.1524C74.3633 69.1304 74.3754 69.1068 74.3973 69.0996L74.7149 68.9961C74.7368 68.9892 74.7603 69.001 74.7674 69.023C74.7747 69.045 74.7626 69.0686 74.7407 69.0758L74.4231 69.1793C74.4188 69.1807 74.4145 69.1814 74.4102 69.1814ZM60.2602 69.0872C60.2398 69.0872 60.2221 69.0723 60.2189 69.0515C60.2028 68.9442 60.1865 68.8332 60.1705 68.7196C60.1673 68.6966 60.183 68.6755 60.206 68.6722C60.2276 68.6688 60.2499 68.6849 60.2531 68.7078C60.2691 68.8212 60.2854 68.932 60.3015 69.039C60.305 69.0619 60.2893 69.0833 60.2665 69.0867C60.2643 69.087 60.2622 69.0872 60.2602 69.0872ZM75.4691 68.8363C75.4515 68.8363 75.4351 68.825 75.4294 68.8074C75.4222 68.7853 75.4343 68.7617 75.4561 68.7546L75.7738 68.651C75.7957 68.6439 75.8194 68.6558 75.8265 68.6779C75.8337 68.6999 75.8216 68.7235 75.7997 68.7306L75.482 68.8342C75.4778 68.8356 75.4734 68.8363 75.4691 68.8363ZM76.5281 68.4912C76.5106 68.4912 76.4942 68.4799 76.4885 68.4622C76.4812 68.4402 76.4933 68.4166 76.5152 68.4094L76.8329 68.3059C76.855 68.2989 76.8784 68.3107 76.8855 68.3327C76.8927 68.3547 76.8806 68.3784 76.8588 68.3855L76.5411 68.4891C76.5368 68.4904 76.5324 68.4912 76.5281 68.4912ZM77.5871 68.146C77.5695 68.146 77.5532 68.1346 77.5473 68.117C77.5427 68.1024 77.5464 68.0871 77.5556 68.0764C77.5449 67.9797 77.5332 67.8829 77.5204 67.7864C77.5174 67.7635 77.5334 67.7425 77.5563 67.7395C77.5782 67.7353 77.6001 67.7526 77.6032 67.7755C77.6172 67.8818 77.6301 67.9885 77.6418 68.0952L77.6455 68.129L77.6 68.1439C77.5957 68.1453 77.5914 68.146 77.5871 68.146ZM60.111 67.9799C60.0901 67.9799 60.072 67.9642 60.0696 67.9429C60.0566 67.8324 60.0442 67.7211 60.0323 67.6093C60.0299 67.5863 60.0465 67.5657 60.0694 67.5632C60.0928 67.5606 60.1129 67.5775 60.1154 67.6004C60.1272 67.7119 60.1395 67.8229 60.1524 67.9331C60.1551 67.956 60.1388 67.9768 60.1158 67.9796C60.1142 67.9798 60.1125 67.9799 60.111 67.9799ZM77.4396 67.0507C77.4197 67.0507 77.4022 67.0365 77.3985 67.0164C77.3783 66.906 77.3572 66.7965 77.3352 66.6881C77.3307 66.6655 77.3453 66.6434 77.3678 66.6388C77.3915 66.6341 77.4125 66.6489 77.4171 66.6715C77.4391 66.7804 77.4604 66.8904 77.4806 67.0012C77.4848 67.024 77.4697 67.0458 77.447 67.05C77.4445 67.0505 77.442 67.0507 77.4396 67.0507ZM60.0056 66.8677C59.9838 66.8677 59.9655 66.8508 59.964 66.8287C59.9563 66.7157 59.9497 66.6037 59.9445 66.4932C59.9433 66.4701 59.9611 66.4505 59.9841 66.4494C59.9848 66.4494 59.9856 66.4494 59.9862 66.4494C60.0084 66.4494 60.0268 66.4668 60.0278 66.4893C60.0331 66.5991 60.0396 66.7106 60.0473 66.8229C60.0489 66.846 60.0315 66.866 60.0085 66.8676C60.0075 66.8677 60.0066 66.8677 60.0056 66.8677ZM77.2059 65.9587C77.187 65.9587 77.1699 65.9459 77.1653 65.9267C77.1386 65.8165 77.1113 65.7083 77.0838 65.6024C77.078 65.58 77.0913 65.5571 77.1136 65.5513C77.1367 65.5457 77.1589 65.559 77.1646 65.5813C77.1923 65.6876 77.2195 65.7962 77.2465 65.9069C77.252 65.9294 77.2382 65.952 77.2158 65.9575C77.2124 65.9583 77.2091 65.9587 77.2059 65.9587ZM59.974 65.7514C59.9736 65.7514 59.9732 65.7514 59.973 65.7514C59.9498 65.7508 59.9317 65.7316 59.9321 65.7085C59.9337 65.6432 59.9361 65.5791 59.9392 65.5166C59.9412 65.4745 59.9715 65.4409 60.0128 65.435L60.0942 65.4235C60.1182 65.4203 60.1383 65.4362 60.1414 65.4591C60.1446 65.482 60.1287 65.5031 60.1058 65.5064L60.0245 65.5179C60.0194 65.5826 60.0173 65.646 60.0157 65.7105C60.0152 65.7333 59.9966 65.7514 59.974 65.7514ZM60.8725 65.3985C60.8519 65.3985 60.834 65.3833 60.8311 65.3624C60.8279 65.3394 60.8439 65.3183 60.8668 65.3151L61.1979 65.2691C61.2206 65.2663 61.2418 65.2819 61.2449 65.3049C61.2481 65.3278 61.2322 65.3489 61.2093 65.3521L60.8782 65.3981C60.8763 65.3983 60.8744 65.3985 60.8725 65.3985ZM61.9761 65.246C61.9555 65.246 61.9377 65.2307 61.9348 65.2097C61.9316 65.1868 61.9476 65.1657 61.9704 65.1626L62.3016 65.1172C62.3272 65.1141 62.3455 65.1302 62.3486 65.153C62.3518 65.176 62.3358 65.197 62.313 65.2002L61.9818 65.2455C61.9798 65.2458 61.9779 65.246 61.9761 65.246ZM63.0799 65.0955C63.0592 65.0955 63.0413 65.0802 63.0385 65.0592C63.0354 65.0363 63.0516 65.0152 63.0743 65.0121L63.4055 64.9675C63.4298 64.9641 63.4494 64.9805 63.4525 65.0034C63.4556 65.0263 63.4394 65.0474 63.4166 65.0504L63.0855 65.0951C63.0836 65.0954 63.0817 65.0955 63.0799 65.0955ZM64.1839 64.9474C64.1633 64.9474 64.1454 64.9321 64.1425 64.911C64.1395 64.8881 64.1555 64.8671 64.1784 64.864L64.5097 64.82C64.5323 64.8171 64.5535 64.8331 64.5566 64.8561C64.5595 64.879 64.5435 64.9 64.5206 64.903L64.1894 64.947C64.1876 64.9472 64.1857 64.9474 64.1839 64.9474ZM76.9153 64.8804C76.8972 64.8804 76.8806 64.8686 76.8753 64.8504C76.8423 64.739 76.8098 64.6321 76.7781 64.5303C76.7713 64.5082 76.7836 64.4847 76.8056 64.4779C76.8275 64.4713 76.8511 64.4833 76.8579 64.5054C76.8896 64.6076 76.9223 64.7149 76.9553 64.8266C76.9618 64.8487 76.9492 64.872 76.9271 64.8786C76.9232 64.8798 76.9192 64.8804 76.9153 64.8804ZM65.2884 64.8016C65.2678 64.8016 65.2497 64.7863 65.247 64.7652C65.2441 64.7423 65.2602 64.7213 65.2831 64.7182L65.6143 64.675C65.6377 64.6715 65.6583 64.6882 65.6612 64.7111C65.6642 64.734 65.6481 64.755 65.6253 64.7581L65.2938 64.8014C65.292 64.8016 65.2902 64.8016 65.2884 64.8016ZM66.393 64.6586C66.3723 64.6586 66.3543 64.6431 66.3516 64.622C66.3487 64.5991 66.3649 64.5781 66.3877 64.5751L66.7193 64.5328C66.7433 64.5295 66.763 64.5462 66.7659 64.569C66.7688 64.592 66.7527 64.6129 66.7297 64.6159L66.3984 64.6582C66.3966 64.6585 66.3947 64.6586 66.393 64.6586ZM67.4979 64.5185C67.4771 64.5185 67.4591 64.503 67.4565 64.4818C67.4536 64.4589 67.4699 64.4379 67.4927 64.4351L67.8243 64.3936C67.8476 64.3905 67.868 64.4071 67.8708 64.43C67.8737 64.453 67.8574 64.4739 67.8345 64.4767L67.5032 64.5181C67.5013 64.5184 67.4995 64.5185 67.4979 64.5185ZM68.603 64.3816C68.5821 64.3816 68.5642 64.3661 68.5616 64.3449C68.5587 64.3219 68.5751 64.301 68.5979 64.2982L68.9296 64.258C68.9527 64.2547 68.9733 64.2716 68.976 64.2945C68.9788 64.3175 68.9625 64.3383 68.9396 64.341L68.6081 64.3813C68.6063 64.3816 68.6046 64.3816 68.603 64.3816ZM69.7087 64.2489C69.6878 64.2489 69.6697 64.2332 69.6672 64.2119C69.6645 64.189 69.6809 64.1681 69.7038 64.1654L70.0357 64.1264C70.0592 64.1233 70.0792 64.1402 70.082 64.1632C70.0847 64.1861 70.0683 64.2069 70.0454 64.2096L69.7135 64.2486C69.7119 64.2488 69.7102 64.2489 69.7087 64.2489ZM70.815 64.1209C70.7939 64.1209 70.7759 64.105 70.7735 64.0837C70.7709 64.0607 70.7874 64.04 70.8103 64.0374L71.1423 64C71.1658 63.9975 71.1858 64.014 71.1885 64.0369C71.191 64.0599 71.1745 64.0806 71.1515 64.0832L70.8196 64.1206C70.818 64.1208 70.8165 64.1209 70.815 64.1209ZM71.9218 63.9985C71.9007 63.9985 71.8827 63.9826 71.8803 63.9611C71.8779 63.9381 71.8945 63.9175 71.9174 63.9151L72.2496 63.8798C72.2739 63.8784 72.2931 63.8941 72.2956 63.917C72.2979 63.9401 72.2813 63.9607 72.2584 63.9631L71.9262 63.9983C71.9248 63.9985 71.9233 63.9985 71.9218 63.9985ZM73.0296 63.8841C73.0084 63.8841 72.9902 63.8679 72.9881 63.8463C72.9858 63.8234 73.0026 63.8028 73.0255 63.8006C73.1385 63.7894 73.2494 63.7785 73.3583 63.7681C73.3801 63.7665 73.4016 63.7829 73.4037 63.8058C73.406 63.8289 73.3891 63.8493 73.3661 63.8515C73.2575 63.8619 73.1466 63.8727 73.0338 63.8839C73.0324 63.884 73.0309 63.8841 73.0296 63.8841ZM76.5737 63.8169C76.5564 63.8169 76.5402 63.806 76.5343 63.7888C76.5155 63.7346 76.4978 63.6846 76.4814 63.639C76.443 63.6392 76.4028 63.6399 76.3615 63.6406C76.3422 63.6417 76.3195 63.6226 76.319 63.5995C76.3187 63.5764 76.337 63.5573 76.3601 63.5569C76.4058 63.5561 76.45 63.5555 76.4927 63.5552C76.5207 63.5552 76.5454 63.5712 76.5544 63.595C76.5725 63.6455 76.5922 63.7009 76.6131 63.7613C76.6207 63.7832 76.6092 63.807 76.5873 63.8146C76.5828 63.8162 76.5782 63.8169 76.5737 63.8169ZM74.1383 63.7803C74.1168 63.7803 74.0986 63.7639 74.0967 63.7421C74.0947 63.7191 74.1117 63.6988 74.1347 63.6968C74.2486 63.6868 74.3597 63.6774 74.4677 63.6685C74.4935 63.665 74.5108 63.6838 74.5129 63.7067C74.5146 63.7298 74.4975 63.75 74.4746 63.7519C74.3666 63.7609 74.2557 63.7702 74.142 63.7802C74.1407 63.7803 74.1395 63.7803 74.1383 63.7803ZM75.2486 63.6935C75.2268 63.6935 75.2085 63.6766 75.2069 63.6544C75.2054 63.6313 75.2229 63.6114 75.2458 63.6099C75.3619 63.602 75.4731 63.5951 75.5797 63.589C75.6072 63.5866 75.6225 63.6054 75.6238 63.6284C75.6251 63.6515 75.6075 63.6712 75.5845 63.6725C75.4781 63.6787 75.3671 63.6856 75.2514 63.6934C75.2505 63.6935 75.2496 63.6935 75.2486 63.6935Z" fill="rgb(255,255,255)" fill-rule="nonzero" />
						<path id="Vector" d="M70.7053 72.0807L68.4641 72.3682C68.1704 72.4059 67.8951 72.2185 67.8232 71.932L67.2883 69.8027C67.203 69.4635 67.4339 69.1259 67.7815 69.0813L70.4739 68.7358C70.8145 68.6921 71.119 68.9493 71.132 69.2917L71.2157 71.4788C71.2273 71.7809 71.0058 72.0421 70.7053 72.0807Z" fill="url(#paint_linear_21)" fill-rule="nonzero" />
						<path id="Vector" d="M70.3792 71.7184L68.6734 71.9373C68.4499 71.966 68.2403 71.8233 68.1855 71.6052L67.7784 69.9846C67.7136 69.7264 67.8893 69.4695 68.1538 69.4356L70.203 69.1726C70.4622 69.1394 70.6939 69.3351 70.7039 69.5957L70.7676 71.2604C70.7764 71.4903 70.6078 71.6891 70.3792 71.7184Z" fill="url(#paint_linear_22)" fill-rule="nonzero" />
					</g>
					<path id="Vector" d="M69.0463 54.4853C69.575 56.6757 69.589 58.8184 69.5085 59.5987C69.4782 59.8928 69.2424 60.1225 68.9482 60.1432C68.614 60.1666 68.1592 60.1974 67.7528 60.2209C67.306 60.2467 66.8101 59.9636 66.4785 59.7269C66.3092 59.6061 66.0902 59.7942 66.1848 59.9798C66.3477 60.2993 66.6306 60.551 66.9115 60.765C67.0804 60.8938 67.6419 61.1224 67.6028 61.3759C67.5904 61.4559 67.5423 61.5255 67.4907 61.5876C67.1786 61.963 66.7065 62.1636 66.2406 62.307C66.1821 62.325 66.1204 62.3442 66.0792 62.3895C66.0676 62.6917 66.9945 63.0273 67.2338 63.107C67.5922 63.2263 67.9723 63.2768 68.3487 63.237C69.2814 63.1385 70.1427 62.493 70.645 61.7147C71.988 59.634 72.6823 57.1215 72.9359 55.1999C71.6866 53.9476 69.8007 54.265 69.0463 54.4853Z" fill="url(#paint_linear_23)" fill-rule="nonzero" />
					<g id="Group">
						<path id="Vector" d="M72.9355 55.3979C73.9317 47.8515 68.132 42.0488 68.132 42.0488L64.6814 46.0826C67.3012 49.3569 68.5465 52.3574 69.1154 54.714C69.8698 54.4937 71.6862 54.1456 72.9355 55.3979Z" fill="url(#paint_linear_24)" fill-rule="nonzero" />
						<path id="Vector" d="M69.0332 54.6766C68.9369 54.6766 68.8493 54.6109 68.8257 54.5128C68.1245 51.6077 66.6464 48.7318 64.4328 45.9651C64.3589 45.8728 64.3736 45.7378 64.4656 45.6637C64.5576 45.5899 64.6923 45.6045 64.7661 45.6968C67.0193 48.5131 68.5249 51.4454 69.2411 54.412C69.2689 54.5271 69.1983 54.6428 69.0837 54.6706C69.0668 54.6747 69.0499 54.6766 69.0332 54.6766Z" fill="url(#paint_linear_25)" fill-rule="nonzero" />
					</g>
				</g>
				<g id="Group">
					<g id="Group">
						<path id="Vector" d="M22.2996 99.4136C22.3002 99.3769 22.2977 99.3396 22.2883 99.302C21.7333 97.0958 18.9789 95.7217 18.9789 95.7217L17.8874 95.8075C17.2598 97.752 17.3405 98.9446 17.4412 99.4758C17.444 99.4907 17.4486 99.5048 17.4525 99.5192C18.3529 99.5999 20.2061 99.6526 22.2996 99.4136Z" fill="url(#paint_linear_26)" fill-rule="nonzero" />
						<path id="Vector" d="M17.4526 99.5196C17.5013 99.697 17.6319 99.8351 17.799 99.8704C19.0798 100.14 21.1155 99.9231 21.9702 99.8111C22.1588 99.7863 22.2966 99.6115 22.2997 99.4141C20.2062 99.653 18.353 99.6003 17.4526 99.5196Z" fill="url(#paint_linear_27)" fill-rule="nonzero" />
						<path id="Vector" d="M17.4487 94.1778L17.911 96.4093C17.9449 96.5728 18.0701 96.6952 18.2219 96.7095C18.4077 96.727 18.6722 96.7372 18.9381 96.6981C19.1766 96.6629 19.3427 96.4199 19.3004 96.1591L18.9791 94.1777L17.4487 94.1778Z" fill="url(#paint_linear_28)" fill-rule="nonzero" />
						<path id="Vector" d="M27.0268 99.4909C25.8214 99.457 25.1978 99.3147 24.8755 99.1826C24.8748 99.3028 24.8754 99.4251 24.8794 99.5518C24.8835 99.6872 24.9835 99.7953 25.1065 99.7945L31.7253 99.7516C31.9365 99.7503 32.0599 99.5046 31.9684 99.3104C31.1005 99.3823 28.8903 99.5432 27.0268 99.4909Z" fill="url(#paint_linear_29)" fill-rule="nonzero" />
						<path id="Vector" d="M31.9686 99.3104C31.9606 99.2935 31.9538 99.2763 31.9424 99.2604C31.3579 98.4414 29.8691 96.8106 26.9273 96.1032L25.516 96.0586C25.516 96.0586 24.8876 97.1538 24.8757 99.1826C25.1981 99.3147 25.8216 99.4571 27.027 99.4909C28.8905 99.5432 31.1008 99.3823 31.9686 99.3104Z" fill="url(#paint_linear_30)" fill-rule="nonzero" />
						<path id="Vector" d="M25.1914 93.9799C25.2137 94.0842 25.5073 95.672 25.6211 96.2876C25.6481 96.4339 25.7617 96.5413 25.897 96.5488C26.1386 96.5624 26.5284 96.564 26.8636 96.4727C27.0443 96.4235 27.1658 96.2386 27.1529 96.0335L26.9951 93.522L25.1914 93.9799Z" fill="url(#paint_linear_31)" fill-rule="nonzero" />
						<path id="Vector" d="M24.1215 64.6627C24.1215 64.6627 26.0628 78.0392 27.4638 93.9572C27.4899 94.2536 27.2543 94.5116 26.9639 94.573C26.5359 94.6633 25.9068 94.7707 25.386 94.756C25.108 94.7482 24.8755 94.5415 24.8288 94.2665C24.3515 91.4599 20.9457 76.3973 20.0519 73.0822C20.0519 73.0822 19.0252 87.1641 19.3533 94.4698C19.3615 94.6515 19.2289 94.8091 19.0487 94.83C18.7754 94.8616 18.3383 94.8857 17.7819 94.8264C17.5707 94.8039 17.4003 94.6438 17.3702 94.433C17.0302 92.0578 15.0735 77.9192 15.1566 67.7343C15.1613 67.16 15.8287 62.4409 15.8287 62.4409L24.1215 64.6627Z" fill="url(#paint_linear_32)" fill-rule="nonzero" />
					</g>
					<path id="Vector" d="M15.5375 65.4336C15.3379 65.3625 15.1988 65.181 15.1771 64.9697C14.9189 62.4582 13.6689 46.886 21.5604 40.4802C21.5604 40.4802 22.013 39.2929 25.7328 42.2114C29.4527 45.1299 27.4611 48.1891 26.5705 52.4085C25.4928 57.5143 23.602 61.6879 24.4386 64.8298C24.4963 65.0467 24.3826 65.2744 24.1726 65.352C21.283 66.4199 18.4045 66.4552 15.5375 65.4336Z" fill="url(#paint_linear_33)" fill-rule="nonzero" />
					<path id="Vector" d="M24.6385 35.8145C24.636 36.036 21.4849 40.5241 21.4849 40.5241C21.4849 40.5241 22.0505 41.6411 24.7507 42.548L27.0815 37.7426L24.6385 35.8145Z" fill="url(#paint_linear_34)" fill-rule="nonzero" />
					<g id="Group">
						<path id="Vector" d="M27.1193 33.2427C27.1193 33.2427 28.2405 35.8254 28.3159 37.181C28.3912 38.5366 28.6825 39.4162 27.1193 39.6892C25.5562 39.9621 24.2394 39.1813 23.526 37.831C23.526 37.831 22.4083 35.7503 22.659 34.8982C22.9097 34.0461 27.1193 33.2427 27.1193 33.2427Z" fill="url(#paint_linear_35)" fill-rule="nonzero" />
						<path id="Vector" d="M24.0603 36.86L24.1493 36.8207C24.2626 36.7706 24.3111 36.6354 24.2542 36.5252C24.0338 36.0981 23.604 35.1195 24.1591 34.8912C24.8745 34.597 27.7084 34.0175 28.3198 33.0093C28.9075 32.0402 28.3868 30.7893 27.6043 30.4335C27.552 30.4097 27.4902 30.4286 27.4633 30.4796L27.3981 30.6033C27.3535 30.688 27.2287 30.6752 27.2022 30.5831C27.1767 30.4948 27.0595 30.4777 27.0109 30.5556C26.8229 30.8573 26.3155 31.3464 24.9587 31.5974C23.0303 31.9543 21.7553 32.7368 21.7236 34.073C21.7215 34.1579 21.6315 34.2051 21.5592 34.1609C21.4168 34.0739 21.1889 34.0331 20.8844 34.2899C20.3548 34.7364 20.5715 35.8947 21.7325 36.8475C21.7877 36.8928 21.7872 36.9791 21.7275 37.0181C21.517 37.1554 21.2033 37.4823 22.0162 37.9181C22.8571 38.3689 23.4851 38.3319 23.7269 38.2919C23.787 38.2819 23.8258 38.2235 23.8126 38.1638L23.5546 36.9894C23.54 36.923 23.5905 36.86 23.6583 36.86L24.0603 36.86Z" fill="url(#paint_linear_36)" fill-rule="nonzero" />
						<path id="Vector" d="M24.1088 37.1079C24.1088 37.1079 23.681 35.4581 22.9434 35.9207C22.2057 36.3833 23.3262 37.7692 23.9192 37.831L24.1088 37.1079Z" fill="url(#paint_linear_37)" fill-rule="nonzero" />
					</g>
					<g id="Group">
						<path id="Vector" d="M26.9292 43.5659L27.1465 49.4169C27.7636 49.6298 28.3511 49.7955 28.9105 49.9191C29.2605 48.7895 30.031 47.4029 30.6619 46.372C28.3437 45.5503 26.9292 43.5659 26.9292 43.5659Z" fill="url(#paint_linear_38)" fill-rule="nonzero" />
						<path id="Vector" d="M38.5033 43.4663C35.3232 46.9091 32.7494 47.1117 30.6621 46.3719C30.0311 47.4028 29.2606 48.7893 28.9106 49.9191C37.4028 51.7964 39.4026 43.9681 39.4026 43.9681L38.5033 43.4663Z" fill="url(#paint_linear_39)" fill-rule="nonzero" />
						<path id="Vector" d="M39.1484 43.1006C39.1484 43.1006 39.5148 42.7062 40.1927 42.8301C40.8707 42.9541 41.4742 43.1903 41.8966 42.8301C42.319 42.47 42.4675 42.9533 42.4675 42.9533L41.2026 43.9175L39.1484 43.1006Z" fill="url(#paint_linear_40)" fill-rule="nonzero" />
						<path id="Vector" d="M38.3916 43.7747C38.3916 43.7747 38.6426 42.7224 39.399 42.8666C40.1554 43.0109 41.8726 43.9473 42.3151 43.7747C42.7576 43.6022 43.3235 43.1894 43.6139 43.3353L43.1025 43.9729C43.1025 43.9729 44.4171 43.2124 44.6435 43.6796L42.4559 44.914C42.4559 44.914 39.2555 44.5927 38.3916 43.7747Z" fill="url(#paint_linear_41)" fill-rule="nonzero" />
					</g>
					<path id="Vector" d="M23.3992 51.2235C23.3992 51.2235 29.3777 56.2443 35.8336 54.0536C36.234 53.9177 36.6719 53.9472 37.0457 54.1451L38.9017 55.128C39.6807 55.5405 40.6454 55.2698 41.0975 54.5115C41.3553 54.079 41.5753 53.585 41.6191 53.1118L37.9874 51.6376L38.2552 51.191C38.2552 51.191 36.482 51.0404 36.0179 52.3147C36.0179 52.3147 32.6406 53.7233 26.945 47.4414C26.945 47.4414 24.3604 49.645 23.3992 51.2235Z" fill="url(#paint_linear_42)" fill-rule="nonzero" />
					<path id="Vector" d="M23.0776 51.1716C23.0579 51.1716 23.0379 51.166 23.0204 51.154C20.5031 49.4485 19.3189 46.6958 19.3072 46.6681C19.2852 46.6158 19.3095 46.5557 19.3614 46.5336C19.4136 46.5114 19.4735 46.5357 19.4956 46.588C19.507 46.615 20.6693 49.3134 23.135 50.984C23.1818 51.0157 23.1941 51.0794 23.1624 51.1265C23.1428 51.1558 23.1105 51.1716 23.0776 51.1716Z" fill="url(#paint_linear_43)" fill-rule="nonzero" />
					<path id="Vector" d="M26.8268 47.3561C26.7932 47.3561 26.7602 47.3394 26.7407 47.3089C26.7331 47.2971 25.964 46.0968 24.4993 43.4667C24.0488 42.658 23.4569 42.1458 22.7398 41.9446C21.5523 41.6119 20.4078 42.2503 20.3965 42.2566C20.3473 42.2839 20.285 42.2675 20.257 42.2182C20.2291 42.1689 20.2462 42.1063 20.2954 42.0783C20.3448 42.0503 21.5219 41.3898 22.793 41.7466C23.5654 41.9626 24.1996 42.5076 24.678 43.3664C26.139 45.9899 26.9052 47.186 26.9128 47.1979C26.9434 47.2454 26.9297 47.3089 26.8822 47.3396C26.865 47.3509 26.8458 47.3561 26.8268 47.3561Z" fill="url(#paint_linear_44)" fill-rule="nonzero" />
				</g>
			</g>
		</g>
	</g>
</svg>
